<?xml version="1.0" encoding="utf-8"?>
<!-- Generator: Adobe Illustrator 26.3.1, SVG Export Plug-In . SVG Version: 6.00 Build 0)  -->
<svg version="1.1" id="Layer_1" xmlns="http://www.w3.org/2000/svg" xmlns:xlink="http://www.w3.org/1999/xlink" x="0px" y="0px"
	 viewBox="0 0 100 100" style="enable-background:new 0 0 100 100;" xml:space="preserve">
<style type="text/css">
	.st0{fill:#A15A5A;}
	.st1{fill:#E45D5D;}
	.st2{fill:#5C5C5B;}
	.st3{fill:#F07474;}
</style>
<path class="st0" d="M79,24.9H14.7v6.3l6.3,6.3v45.8c0,8.8,6.7,13.5,14.9,13.5h28.1c8.3,0,15.1-4.7,15.1-13.5V37.4l6.3-6.2v-6.3H79z
	"/>
<path class="st1" d="M27.9,63.4V38.7c0-1.7,1.4-3.2,3.2-3.2s3.2,1.4,3.2,3.2v42.9c0,1.7-1.4,3.2-3.2,3.2s-3.2-1.4-3.2-3.2v-4.3"/>
<path class="st1" d="M43.7,84.8c-1.7,0-3.2-1.4-3.2-3.2V38.8c0-1.7,1.4-3.2,3.2-3.2c1.7,0,3.2,1.4,3.2,3.2v42.9
	C46.8,83.4,45.4,84.8,43.7,84.8z"/>
<path class="st2" d="M43.7,85.5c-2.1,0-3.8-1.7-3.8-3.8V38.8c0-2.1,1.7-3.8,3.8-3.8c2.1,0,3.8,1.7,3.8,3.8v42.9
	C47.5,83.8,45.8,85.5,43.7,85.5z M43.7,36.2c-1.4,0-2.5,1.1-2.5,2.5v42.9c0,1.4,1.1,2.5,2.5,2.5c1.4,0,2.5-1.1,2.5-2.5V38.8
	C46.2,37.4,45.1,36.2,43.7,36.2z"/>
<path class="st1" d="M56.3,84.8c-1.7,0-3.2-1.4-3.2-3.2V38.8c0-1.7,1.4-3.2,3.2-3.2c1.7,0,3.2,1.4,3.2,3.2v42.9
	C59.5,83.4,58,84.8,56.3,84.8z"/>
<path class="st1" d="M68.9,84.8c-1.7,0-3.2-1.4-3.2-3.2V38.8c0-1.7,1.4-3.2,3.2-3.2s3.2,1.4,3.2,3.2v42.9
	C72.1,83.4,70.7,84.8,68.9,84.8z"/>
<path class="st3" d="M85.3,24.9v-0.3c0-8.9-3.6-13.6-14.2-13.6H28.9c-10.6,0-14.2,4.7-14.2,13.6v0.3H85.3z"/>
<g>
	<path class="st2" d="M63.9,98.1H35.8c-9.6,0-16.1-5.9-16.1-14.8V38l-5.9-5.9c-0.2-0.2-0.4-0.6-0.4-0.9v-6.3c0-0.7,0.6-1.3,1.3-1.3
		h70.7c0.7,0,1.3,0.6,1.3,1.3v6.3c0,0.3-0.1,0.7-0.4,0.9l-5.9,5.8v45.4C80.3,92.2,73.7,98.1,63.9,98.1z M15.9,30.7l5.9,5.9
		c0.2,0.2,0.4,0.6,0.4,0.9v45.8c0,9,7.3,12.2,13.6,12.2h28.1c6.4,0,13.8-3.2,13.8-12.2V37.4c0-0.3,0.1-0.7,0.4-0.9l5.9-5.8v-4.5
		H15.9V30.7z"/>
	<path class="st2" d="M31.1,85.4c-2.1,0-3.8-1.7-3.8-3.8v-4.3c0-0.4,0.3-0.6,0.6-0.6s0.6,0.3,0.6,0.6v4.3c0,1.4,1.1,2.5,2.5,2.5
		s2.5-1.1,2.5-2.5V38.7c0-1.4-1.1-2.5-2.5-2.5s-2.5,1.1-2.5,2.5v24.7c0,0.4-0.3,0.6-0.6,0.6s-0.6-0.3-0.6-0.6V38.7
		c0-2.1,1.7-3.8,3.8-3.8s3.8,1.7,3.8,3.8v42.9C34.9,83.7,33.1,85.4,31.1,85.4z"/>
	<path class="st2" d="M27.9,70.3c-0.4,0-0.6-0.3-0.6-0.6v-3.8c0-0.4,0.3-0.6,0.6-0.6s0.6,0.3,0.6,0.6v3.8
		C28.5,70,28.3,70.3,27.9,70.3z"/>
	<path class="st2" d="M56.3,85.5c-2.1,0-3.8-1.7-3.8-3.8V38.8c0-2.1,1.7-3.8,3.8-3.8c2.1,0,3.8,1.7,3.8,3.8v42.9
		C60.1,83.8,58.4,85.5,56.3,85.5z M56.3,36.2c-1.4,0-2.5,1.1-2.5,2.5v42.9c0,1.4,1.1,2.5,2.5,2.5c1.4,0,2.5-1.1,2.5-2.5V38.8
		C58.8,37.4,57.7,36.2,56.3,36.2z"/>
	<path class="st2" d="M68.9,85.5c-2.1,0-3.8-1.7-3.8-3.8V38.8c0-2.1,1.7-3.8,3.8-3.8s3.8,1.7,3.8,3.8v42.9
		C72.7,83.8,71,85.5,68.9,85.5z M68.9,36.2c-1.4,0-2.5,1.1-2.5,2.5v42.9c0,1.4,1.1,2.5,2.5,2.5s2.5-1.1,2.5-2.5V38.8
		C71.5,37.4,70.3,36.2,68.9,36.2z"/>
	<path class="st2" d="M85.3,26.1H14.7c-0.7,0-1.3-0.6-1.3-1.3v-0.3c0-10.3,4.8-14.8,15.5-14.8h42.2c10.7,0,15.5,4.6,15.5,14.8v0.3
		C86.6,25.6,86,26.1,85.3,26.1z M15.9,23.6h68.1c-0.3-8.1-4.1-11.4-13-11.4H28.9C20,12.3,16.2,15.6,15.9,23.6z M86,29.9H16.5
		c-0.4,0-0.6-0.3-0.6-0.6s0.3-0.6,0.6-0.6H86c0.4,0,0.6,0.3,0.6,0.6S86.3,29.9,86,29.9z M77.1,91.8h-53c-0.4,0-0.6-0.3-0.6-0.6
		c0-0.4,0.3-0.6,0.6-0.6h53c0.4,0,0.6,0.3,0.6,0.6C77.8,91.5,77.5,91.8,77.1,91.8z"/>
	<path class="st2" d="M62.6,12.3H37.4c-0.7,0-1.3-0.6-1.3-1.3V7.7c0-3.7,2.9-6.8,6.5-6.8h14.8c3.6,0,6.5,3,6.5,6.8V11
		C63.9,11.7,63.3,12.3,62.6,12.3z M38.6,9.7h22.7V7.7c0-2.3-1.8-4.2-4-4.2H42.6c-2.2,0-4,1.9-4,4.2V9.7z M73.4,21.1H15.3
		c-0.4,0-0.6-0.3-0.6-0.6s0.3-0.6,0.6-0.6h58.1c0.4,0,0.6,0.3,0.6,0.6S73.7,21.1,73.4,21.1z M79,61.4c-0.7,0-1.3-0.6-1.3-1.3V42.5
		c0-0.7,0.6-1.3,1.3-1.3c3.5,0,6.3,2.8,6.3,6.3v7.6C85.3,58.6,82.5,61.4,79,61.4z M80.3,43.9v14.7c1.5-0.5,2.5-1.9,2.5-3.6v-7.6
		C82.8,45.9,81.8,44.5,80.3,43.9z M21,61.4c-3.5,0-6.3-2.8-6.3-6.3v-7.6c0-3.5,2.8-6.3,6.3-6.3c0.7,0,1.3,0.6,1.3,1.3v17.7
		C22.2,60.8,21.7,61.4,21,61.4z M19.7,43.9c-1.5,0.5-2.5,1.9-2.5,3.6v7.6c0,1.6,1.1,3,2.5,3.6V43.9z M80.9,21.1h-3.8
		c-0.4,0-0.6-0.3-0.6-0.6s0.3-0.6,0.6-0.6h3.8c0.4,0,0.6,0.3,0.6,0.6S81.3,21.1,80.9,21.1z"/>
</g>
</svg>
