<?xml version="1.0" encoding="utf-8"?>
<!-- Generator: Adobe Illustrator 26.3.1, SVG Export Plug-In . SVG Version: 6.00 Build 0)  -->
<svg version="1.1" id="Layer_1" xmlns="http://www.w3.org/2000/svg" xmlns:xlink="http://www.w3.org/1999/xlink" x="0px" y="0px"
	 viewBox="0 0 226 226" style="enable-background:new 0 0 226 226;" xml:space="preserve">
<style type="text/css">
	.st0{fill:none;}
	.st1{fill:#FFD7E5;}
	.st2{fill:#FA759E;}
	.st3{fill:#3A2C60;}
</style>
<g>
	<path class="st0" d="M0,226V0h226v226H0z"/>
	<g id="Layer_1_00000109005024915772501740000016908775333277132426_">
		<path class="st1" d="M26.4,47.7c-2,0.7-3.6,2.8-3.6,4.6V192c0,1.8,1.6,2.7,3.6,1.9L87.3,171V24.8L26.4,47.7z"/>
		<path class="st1" d="M202.8,30.5l-56.1,16.9v146.3l56.1-16.9c1.8-0.5,3.3-2.5,3.3-4.3V32.8C206.1,31,204.7,30,202.8,30.5
			L202.8,30.5z"/>
		<path class="st2" d="M87.3,24.8V171l59.4,22.7V47.4L87.3,24.8z"/>
		<path class="st2" d="M69.7,75.5l-29.3,11c-1,0.4-1.8,1.4-1.8,2.3v54.7c0,0.9,0.8,1.3,1.8,1l29.3-11c1-0.4,1.8-1.4,1.8-2.3V76.5
			C71.5,75.6,70.7,75.1,69.7,75.5z"/>
		<g>
			<path class="st2" d="M189.9,79.4l-27,8.1c-0.9,0.3-1.6,1.2-1.6,2.1v54.7c0,0.9,0.7,1.4,1.6,1.1l27-8.1c0.9-0.3,1.6-1.2,1.6-2.1
				V80.5C191.6,79.6,190.8,79.1,189.9,79.4z"/>
			<path class="st3" d="M137.9,81.9L97.3,66.4c-0.9-0.3-1.8,0.1-2.1,0.9c-0.3,0.8,0.1,1.8,0.9,2.1L136.7,85c0.2,0.1,0.4,0.1,0.6,0.1
				c0.7,0,1.3-0.4,1.5-1.1C139.2,83.2,138.8,82.2,137.9,81.9z"/>
			<path class="st3" d="M137.9,93.5L97.3,78c-0.9-0.3-1.8,0.1-2.1,0.9c-0.3,0.8,0.1,1.8,0.9,2.1l40.6,15.5c0.2,0.1,0.4,0.1,0.6,0.1
				c0.7,0,1.3-0.4,1.5-1.1C139.2,94.8,138.8,93.8,137.9,93.5z"/>
			<path class="st3" d="M137.9,105.1L97.3,89.5c-0.9-0.3-1.8,0.1-2.1,0.9c-0.3,0.8,0.1,1.8,0.9,2.1l40.6,15.5
				c0.2,0.1,0.4,0.1,0.6,0.1c0.7,0,1.3-0.4,1.5-1.1C139.2,106.3,138.8,105.4,137.9,105.1z"/>
			<path class="st3" d="M137.9,116.6l-40.6-15.5c-0.9-0.3-1.8,0.1-2.1,0.9c-0.3,0.8,0.1,1.8,0.9,2.1l40.6,15.5
				c0.2,0.1,0.4,0.1,0.6,0.1c0.7,0,1.3-0.4,1.5-1.1C139.2,117.9,138.8,117,137.9,116.6z"/>
			<path class="st3" d="M137.9,128.2l-40.6-15.5c-0.9-0.3-1.8,0.1-2.1,0.9c-0.3,0.8,0.1,1.8,0.9,2.1l40.6,15.5
				c0.2,0.1,0.4,0.1,0.6,0.1c0.7,0,1.3-0.4,1.5-1.1C139.2,129.5,138.8,128.5,137.9,128.2z"/>
			<path class="st3" d="M137.9,139.8l-40.6-15.5c-0.9-0.3-1.8,0.1-2.1,0.9c-0.3,0.8,0.1,1.8,0.9,2.1l40.6,15.5
				c0.2,0.1,0.4,0.1,0.6,0.1c0.7,0,1.3-0.4,1.5-1.1C139.2,141.1,138.8,140.1,137.9,139.8z"/>
			<path class="st3" d="M137.9,151.4l-40.6-15.5c-0.9-0.3-1.8,0.1-2.1,0.9c-0.3,0.8,0.1,1.8,0.9,2.1l40.6,15.5
				c0.2,0.1,0.4,0.1,0.6,0.1c0.7,0,1.3-0.4,1.5-1.1C139.2,152.6,138.8,151.7,137.9,151.4z"/>
			<path class="st3" d="M115.1,37.1l10.2,3.9c0.2,0.1,0.4,0.1,0.6,0.1c0.7,0,1.3-0.4,1.5-1.1c0.3-0.8-0.1-1.8-0.9-2.1L116.2,34
				c-0.9-0.3-1.8,0.1-2.1,0.9C113.8,35.8,114.2,36.8,115.1,37.1L115.1,37.1z"/>
			<path class="st3" d="M206.2,29.5c-1-0.8-2.4-1-3.8-0.6l-55.6,16.8l-15-5.7c-0.9-0.3-1.8,0.1-2.1,0.9c-0.3,0.8,0.1,1.8,0.9,2.1
				l14.4,5.5v142.7L89,169.9V27.1l20.7,7.9c0.8,0.3,1.8-0.1,2.1-0.9c0.3-0.8-0.1-1.8-0.9-2.1l-23-8.8c-0.4-0.1-0.8-0.1-1.2,0
				L25.8,46.1c-2.6,1-4.6,3.7-4.6,6.2V192c0,1.3,0.6,2.5,1.6,3.2c0.7,0.5,1.4,0.7,2.3,0.7c0.6,0,1.3-0.1,1.9-0.4l60.4-22.7
				l58.8,22.5c0.3,0.1,0.7,0.1,1.1,0l56.1-16.9c2.5-0.8,4.5-3.3,4.5-5.9V32.8C207.8,31.5,207.2,30.2,206.2,29.5L206.2,29.5z
				 M25.8,192.4c-0.6,0.2-1,0.2-1.2,0.1c-0.1-0.1-0.2-0.3-0.2-0.5V52.3c0-1,1.1-2.6,2.5-3.1l58.7-22.1v142.7L25.8,192.4z
				 M204.5,172.5c0,1.1-1,2.4-2.1,2.7l-54,16.3V48.7l54.9-16.6c0.4-0.1,0.7-0.1,0.9,0c0.2,0.2,0.2,0.5,0.2,0.7L204.5,172.5z"/>
			<path class="st3" d="M41.8,60c0.2,0,0.4,0,0.6-0.1l26.5-10c0.9-0.3,1.3-1.3,1-2.1c-0.3-0.9-1.3-1.3-2.1-1l-26.5,10
				c-0.9,0.3-1.3,1.3-1,2.1C40.5,59.6,41.1,60,41.8,60z"/>
			<path class="st3" d="M67.7,55.9l-26.5,10c-0.9,0.3-1.3,1.3-1,2.1c0.2,0.7,0.9,1.1,1.5,1.1c0.2,0,0.4,0,0.6-0.1l26.5-10
				c0.9-0.3,1.3-1.3,1-2.1C69.5,56,68.5,55.6,67.7,55.9L67.7,55.9z"/>
			<path class="st3" d="M67.7,64.9l-26.5,10c-0.9,0.3-1.3,1.3-1,2.1c0.2,0.7,0.9,1.1,1.5,1.1c0.2,0,0.4,0,0.6-0.1l26.5-10
				c0.9-0.3,1.3-1.3,1-2.1C69.5,65,68.5,64.5,67.7,64.9z"/>
			<path class="st3" d="M67.7,142.2l-26.5,10c-0.9,0.3-1.3,1.3-1,2.1c0.2,0.7,0.9,1.1,1.5,1.1c0.2,0,0.4,0,0.6-0.1l26.5-10
				c0.9-0.3,1.3-1.3,1-2.1C69.5,142.3,68.5,141.8,67.7,142.2z"/>
			<path class="st3" d="M67.7,151.1l-26.5,10c-0.9,0.3-1.3,1.3-1,2.1c0.2,0.7,0.9,1.1,1.5,1.1c0.2,0,0.4,0,0.6-0.1l26.5-10
				c0.9-0.3,1.3-1.3,1-2.1C69.5,151.2,68.5,150.8,67.7,151.1z"/>
			<path class="st3" d="M67.7,160.1l-26.5,10c-0.9,0.3-1.3,1.3-1,2.1c0.2,0.7,0.9,1.1,1.5,1.1c0.2,0,0.4,0,0.6-0.1l26.5-10
				c0.9-0.3,1.3-1.3,1-2.1C69.5,160.2,68.5,159.8,67.7,160.1z"/>
			<path class="st3" d="M188.7,50.4l-25.4,7.7c-0.9,0.3-1.4,1.2-1.1,2.1c0.2,0.7,0.9,1.2,1.6,1.2c0.2,0,0.3,0,0.5-0.1l25.4-7.7
				c0.9-0.3,1.4-1.2,1.1-2.1C190.5,50.7,189.5,50.2,188.7,50.4z"/>
			<path class="st3" d="M188.7,59.4l-25.4,7.7c-0.9,0.3-1.4,1.2-1.1,2.1c0.2,0.7,0.9,1.2,1.6,1.2c0.2,0,0.3,0,0.5-0.1l25.4-7.7
				c0.9-0.3,1.4-1.2,1.1-2.1C190.5,59.6,189.5,59.1,188.7,59.4z"/>
			<path class="st3" d="M188.7,68.4L163.2,76c-0.9,0.3-1.4,1.2-1.1,2.1c0.2,0.7,0.9,1.2,1.6,1.2c0.2,0,0.3,0,0.5-0.1l25.4-7.7
				c0.9-0.3,1.4-1.2,1.1-2.1C190.5,68.6,189.5,68.1,188.7,68.4L188.7,68.4z"/>
			<path class="st3" d="M188.7,145.7l-25.4,7.7c-0.9,0.3-1.4,1.2-1.1,2.1c0.2,0.7,0.9,1.2,1.6,1.2c0.2,0,0.3,0,0.5-0.1l25.4-7.7
				c0.9-0.3,1.4-1.2,1.1-2.1C190.5,145.9,189.5,145.4,188.7,145.7L188.7,145.7z"/>
			<path class="st3" d="M188.7,154.7l-25.4,7.7c-0.9,0.3-1.4,1.2-1.1,2.1c0.2,0.7,0.9,1.2,1.6,1.2c0.2,0,0.3,0,0.5-0.1l25.4-7.7
				c0.9-0.3,1.4-1.2,1.1-2.1C190.5,154.9,189.5,154.4,188.7,154.7z"/>
			<path class="st3" d="M188.7,163.6l-25.4,7.7c-0.9,0.3-1.4,1.2-1.1,2.1c0.2,0.7,0.9,1.2,1.6,1.2c0.2,0,0.3,0,0.5-0.1l25.4-7.7
				c0.9-0.3,1.4-1.2,1.1-2.1C190.5,163.9,189.5,163.4,188.7,163.6L188.7,163.6z"/>
		</g>
	</g>
</g>
</svg>
