<?xml version="1.0" encoding="utf-8"?>
<!-- Generator: Adobe Illustrator 26.3.1, SVG Export Plug-In . SVG Version: 6.00 Build 0)  -->
<svg version="1.1" id="Layer_1" xmlns="http://www.w3.org/2000/svg" xmlns:xlink="http://www.w3.org/1999/xlink" x="0px" y="0px"
	 viewBox="0 0 172 172" style="enable-background:new 0 0 172 172;" xml:space="preserve">
<style type="text/css">
	.st0{fill:none;}
	.st1{fill:#FA759E;}
	.st2{fill:#FFD7E5;}
	.st3{fill:#1F212B;}
	.st4{fill:#52BEA0;}
	.st5{fill:#00A6A6;}
	.st6{fill:#F9E65C;}
</style>
<path class="st0" d="M0,172V0h172v172H0z"/>
<g>
	<path class="st1" d="M132,146H40c-12.2,0-22-9.9-22-22V48c0-12.2,9.9-22,22-22h92c12.2,0,22,9.9,22,22v76
		C154,136.2,144.2,146,132,146z"/>
	<path class="st2" d="M132,138H40c-7.7,0-14-6.3-14-14V48c0-7.7,6.3-14,14-14h92c7.7,0,14,6.3,14,14v76C146,131.7,139.7,138,132,138
		z"/>
	<path class="st3" d="M132,148H40c-13.2,0-24-10.8-24-24V48c0-13.2,10.8-24,24-24h92c13.2,0,24,10.8,24,24v76
		C156,137.2,145.2,148,132,148z M40,28c-11,0-20,9-20,20v76c0,11,9,20,20,20h92c11,0,20-9,20-20V48c0-11-9-20-20-20L40,28z"/>
	<path class="st4" d="M145,124v-9l-26.6-26.6c-0.9-0.9-2.2-1.4-3.4-1.4s-2.5,0.5-3.4,1.4L63,137h69C139.2,137,145,131.2,145,124
		L145,124z"/>
	<path class="st3" d="M132,138H63c-0.4,0-0.8-0.2-0.9-0.6c-0.2-0.4-0.1-0.8,0.2-1.1l48.6-48.6c2.2-2.2,6-2.2,8.2,0l26.6,26.6
		c0.2,0.2,0.3,0.4,0.3,0.7v9C146,131.7,139.7,138,132,138z M65.4,136H132c6.6,0,12-5.4,12-12v-8.6l-26.3-26.3c-1.4-1.4-4-1.4-5.4,0
		L65.4,136z"/>
	<path class="st5" d="M40,137h81L58.4,74.4C57.5,73.5,56.2,73,55,73c-1.2,0-2.5,0.5-3.4,1.4L27,99v25C27,131.2,32.8,137,40,137
		L40,137z"/>
	<path class="st3" d="M121,138H40c-7.7,0-14-6.3-14-14V99c0-0.3,0.1-0.5,0.3-0.7l24.6-24.6c2.2-2.2,6-2.2,8.2,0l62.6,62.6
		c0.3,0.3,0.4,0.7,0.2,1.1C121.8,137.8,121.4,138,121,138z M28,99.4V124c0,6.6,5.4,12,12,12h78.6L57.7,75.1c-1.4-1.4-4-1.4-5.4,0
		L28,99.4z"/>
	<path class="st3" d="M132,138H40c-7.7,0-14-6.3-14-14V48c0-7.7,6.3-14,14-14h83c0.6,0,1,0.4,1,1s-0.4,1-1,1H40c-6.6,0-12,5.4-12,12
		v76c0,6.6,5.4,12,12,12h92c6.6,0,12-5.4,12-12V93c0-0.6,0.4-1,1-1c0.6,0,1,0.4,1,1v31C146,131.7,139.7,138,132,138z"/>
	<path class="st3" d="M145,74c-0.6,0-1-0.4-1-1v-4c0-0.6,0.4-1,1-1c0.6,0,1,0.4,1,1v4C146,73.6,145.6,74,145,74z"/>
	<path class="st3" d="M145,88c-0.6,0-1-0.4-1-1v-8c0-0.6,0.4-1,1-1c0.6,0,1,0.4,1,1v8C146,87.6,145.6,88,145,88z"/>
	<circle class="st6" cx="119" cy="61" r="10"/>
	<path class="st3" d="M119,72c-6.1,0-11-4.9-11-11s4.9-11,11-11s11,4.9,11,11S125.1,72,119,72z M119,52c-5,0-9,4-9,9s4,9,9,9
		s9-4,9-9S124,52,119,52z"/>
</g>
</svg>
