<?xml version="1.0" encoding="utf-8"?>
<!-- Generator: Adobe Illustrator 26.3.1, SVG Export Plug-In . SVG Version: 6.00 Build 0)  -->
<svg version="1.1" id="Layer_1" xmlns="http://www.w3.org/2000/svg" xmlns:xlink="http://www.w3.org/1999/xlink" x="0px" y="0px"
	 viewBox="0 0 172 172" style="enable-background:new 0 0 172 172;" xml:space="preserve">
<style type="text/css">
	.st0{fill:none;}
	.st1{fill:#F15B6C;}
	.st2{fill:#FED5B3;}
	.st3{fill:#B77748;}
	.st4{fill:#1F212B;}
</style>
<g>
	<path class="st0" d="M-7.4,179.4V-7.4h186.9v186.9H-7.4z"/>
	<path class="st1" d="M132.7,147.7H39.3c-2.4,0-4.2-2.2-3.7-4.5l0,0c1.7-7.7,7.1-14,14.4-16.9l16.5-6.3c4.1,2.1,11.4,3.4,19.4,3.4
		c8,0,15.3-1.3,19.4-3.4l16.5,6.3c7.3,2.9,12.7,9.2,14.4,16.9C136.9,145.5,135.1,147.7,132.7,147.7z"/>
	<path class="st2" d="M105.4,119.9c-4.1,2.1-11.4,3.4-19.4,3.4c-8,0-15.3-1.3-19.4-3.4l3.6-1.4c1-0.2,0.8-2.7,0.8-2.7
		c0-1.9,0-7.5,0-7.5h29.9v7.5c0,0-0.1,2.4,0.7,2.6L105.4,119.9z"/>
	<path class="st2" d="M114,97.2c1.3-2,1.9-5.6,1.9-9.3V86c1.4-0.7,2.8-2.1,3.4-3.9c0.4-1.2,3.6-9.9,3.6-9.9c1-3.1,0.3-5-0.5-6.1
		c-0.3-0.4-2.7-2.6-2.7-2.6V52.4c0-18.9-14.8-33.6-33.6-33.6S52.4,33.4,52.4,52.4v11.2c0,0-2.4,1.9-2.7,2.3c-0.8,1.1-1.6,3-0.6,6
		c0,0,2.8,8.4,3.4,10.2c0.6,2,1.9,3.3,3.6,3.9v1.9c0,3.7,0.5,7.4,1.9,9.3c7.5,11.2,22.2,16.8,28,16.8S106.6,108.4,114,97.2z"/>
	<path class="st3" d="M122.4,52.4c0,7.6-2.2,15.7-5.8,21.1c-0.2,0.3-0.5,0.4-0.8,0.4c-0.1,0-0.2,0-0.3,0c-0.4-0.1-0.7-0.5-0.7-0.9
		c0-5.5-3.2-10.9-6.5-16.6c-2.9-4.9-5.9-10-7.1-15.7c-5.7,7.2-13.5,14.6-19.9,15.5c-0.4,0-0.7-0.1-0.9-0.4c-0.2-0.3-0.2-0.7,0-1
		c4.4-6.5,5.2-10.8,5.4-13.1c-12,5.1-18.6,23.1-18.7,23.2c-0.1,0.3-0.4,0.5-0.7,0.6c-0.3,0.1-0.6,0-0.9-0.3
		c-0.1-0.1-2.4-2.5-3.5-5.4C59.9,65,59.8,71.9,59.8,72c0,0.4-0.3,0.8-0.7,0.9c-0.4,0.1-0.8,0-1-0.4c-0.3-0.4-6.4-9.8-7.5-20
		c-0.7,1.1-1.6,2.4-2.2,3.3c-0.2,0.3-0.7,0.5-1,0.4c-0.4-0.1-0.7-0.5-0.7-0.9C46.8,27.8,70.2,15,86,15c14,0,20.4,6.8,22.2,11.2
		C116.3,26.8,122.4,37.8,122.4,52.4z"/>
	<path class="st4" d="M94.4,124.7c0,0,0.1,0,0.1,0c0.6-0.1,1.3-0.2,1.9-0.3c0.5-0.1,0.9-0.6,0.8-1.1c-0.1-0.5-0.6-0.9-1.1-0.8
		c-0.6,0.1-1.2,0.2-1.8,0.3c-0.5,0.1-0.9,0.5-0.8,1C93.6,124.4,94,124.7,94.4,124.7z M53.3,140.2h-3.7c-0.5,0-0.9,0.4-0.9,0.9
		c0,0.5,0.4,0.9,0.9,0.9h3.7c0.5,0,0.9-0.4,0.9-0.9C54.2,140.6,53.8,140.2,53.3,140.2z M45.8,140.2H44c-0.5,0-0.9,0.4-0.9,0.9
		c0,0.5,0.4,0.9,0.9,0.9h1.9c0.5,0,0.9-0.4,0.9-0.9C46.8,140.6,46.3,140.2,45.8,140.2z M91,51.2c3.4-2.7,7-6.4,10.3-10.6
		c1.3,5.7,4.3,10.8,6.8,15.1c0.2,0.3,0.5,0.5,0.8,0.5c0.2,0,0.3,0,0.5-0.1c0.4-0.3,0.6-0.8,0.3-1.3c-2.7-4.6-6-10.3-6.9-16.5
		c-0.1-0.4-0.3-0.7-0.7-0.8c-0.4-0.1-0.8,0-1,0.3c-3.6,4.8-7.6,9-11.3,12c-0.4,0.3-0.5,0.9-0.1,1.3C90,51.5,90.6,51.6,91,51.2z
		 M111.3,61.3c0.2,0.3,0.5,0.5,0.8,0.5c0.1,0,0.3,0,0.4-0.1c0.5-0.2,0.6-0.8,0.4-1.3c-0.4-0.7-0.7-1.3-1.1-2
		c-0.3-0.5-0.8-0.6-1.3-0.4c-0.4,0.3-0.6,0.8-0.4,1.3C110.6,60,111,60.7,111.3,61.3z"/>
	<path class="st4" d="M138.2,142.7c-1.8-8.3-7.7-15.1-15.6-18.3l-19.8-7.5c0-0.3-0.1-0.7,0-1.1V110c4.8-2.9,9.4-6.8,12.8-11.8
		c0.2-0.3,0.4-0.6,0.5-1c0-0.1,0.1-0.2,0.1-0.3c0.1-0.3,0.2-0.6,0.4-0.9c0.1-0.2,0.1-0.4,0.2-0.7c0,0,0-0.1,0-0.1c0,0,0,0,0-0.1
		c0.7-2.4,0.9-5.2,0.9-7.4v-0.7c1.7-0.9,2.9-2.5,3.6-4.5l3.3-10.2c1.3-4-0.2-6.8-0.9-7.7c-0.6-0.9-1.5-1.4-2.3-2.1
		c0,0,0.3-1.8,0.5-3.5s0.4-4.3,0.4-6.8c0-14.5-6.1-25.6-14.3-26.1C106.4,21.8,100,15,86,15c-15.8,0-39.2,12.8-39.2,40.2
		c0,0.4,0.3,0.8,0.7,0.9c0.4,0.1,0.8,0,1-0.4c0.6-0.8,1.3-2,2-3v10c-1.9,1.6-2.2,1.9-2.3,2.1c-0.9,1.2-2.2,3.7-0.9,7.7l3.3,10.2
		c0.7,2,1.9,3.6,3.6,4.5v0.7c0,3.2,0.4,7.7,2.2,10.4c3.3,5,8,8.9,12.8,11.8l0,6c0,0.3,0,0.7-0.1,1l-19.8,7.5
		c-7.9,3.1-13.7,10-15.5,18.2c-0.4,1.7,0,3.4,1.1,4.7c1.1,1.3,2.7,2.1,4.4,2.1h93.4c1.7,0,3.3-0.8,4.4-2.1
		C138.2,146.1,138.6,144.4,138.2,142.7z M59.5,96.2L59.5,96.2c-1-1.5-1.6-4.6-1.6-8.3V86c0-0.8-0.5-1.5-1.3-1.8
		c-1.2-0.4-2-1.3-2.5-2.7l-3.4-10.3c-0.8-2.3-0.2-3.7,0.2-4.2c0.2-0.2,1.4-1.3,2.4-2.1c0.2-0.1,0.3-0.3,0.4-0.5c1.9,4.6,4,7.7,4.2,8
		c0.2,0.3,0.7,0.5,1,0.4c0.4-0.1,0.7-0.5,0.7-0.9c0-0.1,0-7,2.4-12.2c1.1,2.9,3.4,5.3,3.5,5.4c0.2,0.2,0.6,0.3,0.9,0.3
		c0.3-0.1,0.6-0.3,0.7-0.6C67.3,64.6,74,46.7,86,41.6c-0.2,2.3-1,6.5-5.4,13.1c-0.2,0.3-0.2,0.7,0,1c0.2,0.3,0.6,0.5,0.9,0.4
		c1.8-0.3,3.8-1,6-2.3c0.4-0.3,0.6-0.8,0.3-1.3c-0.3-0.4-0.8-0.6-1.3-0.3c-1.1,0.6-2.1,1.2-3.1,1.5c4.5-7.4,4.5-11.7,4.5-13.4
		c0-0.3-0.1-0.6-0.4-0.8c-0.2-0.2-0.6-0.2-0.8-0.1C75,43.2,68,58,66.1,62.7c-1-1.3-2.5-3.5-2.5-5.7c0-0.4-0.3-0.8-0.7-0.9
		c-0.4-0.1-0.8,0-1,0.4c-2.5,3.8-3.4,9-3.7,12.3C56,65,52.4,57.2,52.4,49.6c0-0.4-0.3-0.8-0.7-0.9c-0.4-0.1-0.8,0-1.1,0.4
		c0,0-0.9,1.4-1.9,2.9C50.5,28,71.6,16.9,86,16.9c13.6,0,19.4,6.6,20.6,10.6c0.1,0.4,0.5,0.7,0.9,0.7c6.4,0,13.1,9.1,13.1,24.3
		c0,6.2-1.5,12.6-4,17.5c-0.3-1.8-0.9-3.7-1.8-5.8c-0.2-0.5-0.8-0.7-1.2-0.5c-0.5,0.2-0.7,0.8-0.5,1.2c1.3,3,1.9,5.6,1.9,8
		c0,0.4,0.3,0.8,0.7,0.9c0.1,0,0.2,0,0.3,0c0.3,0,0.6-0.2,0.8-0.4c0.4-0.6,0.7-1.2,1.1-1.8l2.6-5.3c0,0,0,0.1,0.1,0.1
		c0.2,0.3,0.4,0.6,0.5,0.7c0.4,0.5,1,1.8,0.2,4.2l-3.4,10.3c-0.4,1.4-1.3,2.3-2.5,2.7c-0.1,0-0.1,0.1-0.1,0.1c0,0,0,0-0.1,0
		c-0.1,0-0.1,0.1-0.2,0.1c-0.1,0-0.1,0.1-0.2,0.1c-0.1,0.1-0.2,0.1-0.2,0.2c-0.1,0.1-0.1,0.1-0.2,0.2c-0.1,0.1-0.1,0.2-0.1,0.3
		c0,0.1-0.1,0.1-0.1,0.2c0,0.1-0.1,0.3-0.1,0.4c0,0,0,0.1,0,0.1v1.9c0,0.2,0,0.4,0,0.5c0,0.3,0,0.6,0,0.9c0,0.2,0,0.4,0,0.5
		c0,0.3,0,0.6-0.1,0.9c0,0.1,0,0.3,0,0.4c0,0.3-0.1,0.7-0.1,1c0,0.1,0,0.2,0,0.2c-0.1,0.4-0.1,0.7-0.2,1c0,0,0,0.1,0,0.1l-0.6,1.8
		c0,0,0,0,0,0.1c0,0.1-0.1,0.2-0.1,0.3c-0.1,0.2-0.2,0.4-0.3,0.5v0c0,0-0.1,0.1-0.1,0.1c-0.4,0.5-0.7,1-1.1,1.5
		c-0.2,0.2-0.4,0.4-0.5,0.7c-0.3,0.3-0.5,0.6-0.8,0.9c-0.2,0.3-0.5,0.5-0.7,0.8c-0.2,0.2-0.5,0.5-0.7,0.7c-0.3,0.3-0.5,0.5-0.8,0.8
		h0c-7.3,6.9-17.3,10.5-21.7,10.5C80.5,112.2,66.5,106.7,59.5,96.2z M134.2,145.1c-0.4,0.4-0.9,0.7-1.5,0.7H39.3
		c-0.6,0-1.1-0.3-1.5-0.7c-0.4-0.4-0.5-1-0.4-1.6c1.6-7.1,6.5-12.9,13.2-15.6l15.8-6c4.5,2,11.7,3.3,19.5,3.3c1.6,0,3.2-0.1,4.7-0.2
		c0.5,0,0.9-0.5,0.9-1c0-0.5-0.5-0.9-1-0.9c-1.5,0.1-3.1,0.1-4.6,0.1c-6.6,0-12.7-0.9-16.9-2.4l1.7-0.7c2.1-0.6,2.2-3.4,2.1-4.4
		v-3.8c5.2,2.5,10.1,3.8,13.1,3.8s7.9-1.3,13.1-3.8v3.8c-0.1,1.7,0.2,3.9,2,4.5l1.8,0.7c-0.9,0.3-2,0.6-3.1,0.9
		c-0.5,0.1-0.8,0.6-0.7,1.1c0.1,0.4,0.5,0.7,0.9,0.7c0.1,0,0.1,0,0.2,0c2-0.5,3.8-1.1,5.3-1.7l15.8,6c5.6,2.2,10,6.7,12.2,12.2H58.9
		c-0.5,0-0.9,0.4-0.9,0.9c0,0.5,0.4,0.9,0.9,0.9h75.2c0.1,0.5,0.3,1,0.4,1.5C134.7,144.1,134.5,144.7,134.2,145.1z"/>
</g>
</svg>
