<svg version="1.1" xmlns="http://www.w3.org/2000/svg" xmlns:xlink="http://www.w3.org/1999/xlink" viewBox="0 0 226 226"><g fill="none" fill-rule="nonzero" stroke="none" stroke-width="1" stroke-linecap="butt" stroke-linejoin="miter" stroke-miterlimit="10" stroke-dasharray="" stroke-dashoffset="0" font-family="none" font-weight="none" font-size="none" text-anchor="none" style="mix-blend-mode: normal"><path d="M0,226v-226h226v226z" fill="none"></path><g><path d="M170.38281,7.0625h-8.82812h-92.69531c-9.73566,0 -17.65625,7.92059 -17.65625,17.65625v52.96875l-4.41406,13.24219l4.41406,13.24219c0,6.92037 0,93.33623 0,97.10938c0,9.73566 7.92059,17.65625 17.65625,17.65625h123.59375c9.73566,0 17.65625,-7.92059 17.65625,-17.65625v-145.66406v-8.82812l-30.89844,-8.82812z" fill="#fff5f5"></path><path d="M170.38281,46.78906h39.72656l-39.72656,-39.72656z" fill="#ece6f2"></path><path d="M113,46.78906h-35.3125c-2.43789,0 -4.41406,-1.97618 -4.41406,-4.41406c0,-2.43789 1.97618,-4.41406 4.41406,-4.41406h35.3125c2.43789,0 4.41406,1.97618 4.41406,4.41406c0,2.43789 -1.97618,4.41406 -4.41406,4.41406z" fill="#d3cbe4"></path><path d="M148.3125,64.44531h-70.625c-2.43789,0 -4.41406,-1.97618 -4.41406,-4.41406c0,-2.43789 1.97618,-4.41406 4.41406,-4.41406h70.625c2.43745,0 4.41406,1.97618 4.41406,4.41406c0,2.43789 -1.97662,4.41406 -4.41406,4.41406z" fill="#d3cbe4"></path><path d="M148.3125,82.10156h-70.625c-2.43789,0 -4.41406,-1.97618 -4.41406,-4.41406c0,-2.43789 1.97618,-4.41406 4.41406,-4.41406h70.625c2.43745,0 4.41406,1.97618 4.41406,4.41406c0,2.43789 -1.97662,4.41406 -4.41406,4.41406z" fill="#d3cbe4"></path><path d="M172.58984,104.17188h-121.38672l-35.3125,-13.24219c0,11.75906 0,65.41552 0,73.12645c0,13.22409 10.75884,23.98293 23.98337,23.98293c7.75462,0 124.59354,0 132.71629,0c8.5187,0 15.44922,-6.93052 15.44922,-15.44922v-52.96875c-0.00044,-8.5187 -6.93096,-15.44922 -15.44966,-15.44922z" fill="#ff884d"></path><path d="M51.20313,104.17188h-22.07031c-7.31366,0 -13.24219,-5.92853 -13.24219,-13.24219v0c0,-7.31366 5.92853,-13.24219 13.24219,-13.24219h22.07031z" fill="#ff415b"></path><g fill="#fbf3f3"><path d="M113,121.8268h-26.48437c-2.43789,0 -4.41406,1.97662 -4.41406,4.41406c0,2.43745 1.97618,4.41406 4.41406,4.41406h8.82813v35.3125c0,2.43745 1.97618,4.41406 4.41406,4.41406c2.43789,0 4.41406,-1.97662 4.41406,-4.41406v-35.3125h8.82813c2.43789,0 4.41406,-1.97662 4.41406,-4.41406c0,-2.43745 -1.97618,-4.41406 -4.41406,-4.41406z"></path><path d="M152.72656,121.8268h-22.07031c-2.43789,0 -4.41406,1.97662 -4.41406,4.41406v39.72656c0,2.43745 1.97618,4.41406 4.41406,4.41406c2.43745,0 4.41406,-1.97662 4.41406,-4.41406v-17.65625h13.24219c2.43745,0 4.41406,-1.97662 4.41406,-4.41406c0,-2.43745 -1.97662,-4.41406 -4.41406,-4.41406h-13.24219v-8.82812h17.65625c2.43745,0 4.41406,-1.97662 4.41406,-4.41406c0,-2.43745 -1.97662,-4.41406 -4.41406,-4.41406z"></path><path d="M57.82422,121.8268c-8.5187,0 -15.44922,6.93052 -15.44922,15.44922v17.65625c0,8.5187 6.93052,15.44922 15.44922,15.44922c8.5187,0 15.44922,-6.93052 15.44922,-15.44922v-17.65625c0,-8.5187 -6.93052,-15.44922 -15.44922,-15.44922zM64.44531,154.93227c0,3.65087 -2.97022,6.62109 -6.62109,6.62109c-3.65087,0 -6.62109,-2.97022 -6.62109,-6.62109v-17.65625c0,-3.65131 2.97022,-6.62109 6.62109,-6.62109c3.65087,0 6.62109,2.96978 6.62109,6.62109z"></path></g></g></g></svg>