<svg version="1.1" xmlns="http://www.w3.org/2000/svg" xmlns:xlink="http://www.w3.org/1999/xlink" viewBox="0 0 172 172"><defs><linearGradient x1="65.17367" y1="21.50358" x2="105.51483" y2="146.43292" gradientUnits="userSpaceOnUse" id="color-1"><stop offset="0" stop-color="#2ecc71"></stop><stop offset="0.587" stop-color="#27b663"></stop><stop offset="1" stop-color="#0f8c44"></stop></linearGradient></defs><g fill="none" fill-rule="nonzero" stroke="none" stroke-width="1" stroke-linecap="butt" stroke-linejoin="miter" stroke-miterlimit="10" stroke-dasharray="" stroke-dashoffset="0" font-family="none" font-weight="none" font-size="none" text-anchor="none" style="mix-blend-mode: normal"><path d="M0,172v-172h172v172z" fill="none"></path><g><path d="M143.33333,21.5h-114.66667c-3.95958,0 -7.16667,3.20708 -7.16667,7.16667v114.66667c0,3.95958 3.20708,7.16667 7.16667,7.16667h114.66667c3.95958,0 7.16667,-3.20708 7.16667,-7.16667v-114.66667c0,-3.95958 -3.20708,-7.16667 -7.16667,-7.16667z" fill="url(#color-1)"></path><path d="M121.83333,75.25h-25.08333v-25.08333c0,-3.95958 -3.20708,-7.16667 -7.16667,-7.16667h-7.16667c-3.95958,0 -7.16667,3.20708 -7.16667,7.16667v25.08333h-25.08333c-3.95958,0 -7.16667,3.20708 -7.16667,7.16667v7.16667c0,3.95958 3.20708,7.16667 7.16667,7.16667h25.08333v25.08333c0,3.95958 3.20708,7.16667 7.16667,7.16667h7.16667c3.95958,0 7.16667,-3.20708 7.16667,-7.16667v-25.08333h25.08333c3.95958,0 7.16667,-3.20708 7.16667,-7.16667v-7.16667c0,-3.95958 -3.20708,-7.16667 -7.16667,-7.16667z" fill="#000000" opacity="0.05"></path><path d="M121.83333,77.04167h-26.875v-26.875c0,-2.967 -2.408,-5.375 -5.375,-5.375h-7.16667c-2.967,0 -5.375,2.408 -5.375,5.375v26.875h-26.875c-2.967,0 -5.375,2.408 -5.375,5.375v7.16667c0,2.967 2.408,5.375 5.375,5.375h26.875v26.875c0,2.967 2.408,5.375 5.375,5.375h7.16667c2.967,0 5.375,-2.408 5.375,-5.375v-26.875h26.875c2.967,0 5.375,-2.408 5.375,-5.375v-7.16667c0,-2.967 -2.408,-5.375 -5.375,-5.375z" fill="#000000" opacity="0.07"></path><path d="M82.41667,46.58333h7.16667c1.978,0 3.58333,1.60533 3.58333,3.58333v71.66667c0,1.978 -1.60533,3.58333 -3.58333,3.58333h-7.16667c-1.978,0 -3.58333,-1.60533 -3.58333,-3.58333v-71.66667c0,-1.978 1.60533,-3.58333 3.58333,-3.58333z" fill="#ffffff"></path><path d="M125.41667,82.41667v7.16667c0,1.978 -1.60533,3.58333 -3.58333,3.58333h-71.66667c-1.978,0 -3.58333,-1.60533 -3.58333,-3.58333v-7.16667c0,-1.978 1.60533,-3.58333 3.58333,-3.58333h71.66667c1.978,0 3.58333,1.60533 3.58333,3.58333z" fill="#ffffff"></path></g></g></svg>