<?xml version="1.0" encoding="utf-8"?>
<!-- Generator: Adobe Illustrator 26.3.1, SVG Export Plug-In . SVG Version: 6.00 Build 0)  -->
<svg version="1.1" id="Layer_1" xmlns="http://www.w3.org/2000/svg" xmlns:xlink="http://www.w3.org/1999/xlink" x="0px" y="0px"
	 viewBox="0 0 226 226" style="enable-background:new 0 0 226 226;" xml:space="preserve">
<style type="text/css">
	.st0{fill:none;}
	.st1{fill:#FBF3F3;}
	.st2{fill:#ECE6F2;}
	.st3{fill:#D3CBE4;}
	.st4{fill:#80AAFF;}
	.st5{fill:#6680FF;}
</style>
<path class="st0" d="M0,226V0h226v226H0z"/>
<path class="st1" d="M170.4,7.1h-8.8H68.9c-9.7,0-17.7,7.9-17.7,17.7v53l-4.4,13.2l4.4,13.2c0,6.9,0,93.3,0,97.1
	c0,9.7,7.9,17.7,17.7,17.7h123.6c9.7,0,17.7-7.9,17.7-17.7V55.6v-8.8L179.2,38L170.4,7.1z"/>
<path class="st2" d="M170.4,46.8h39.7L170.4,7.1V46.8z"/>
<path class="st3" d="M113,46.8H77.7c-2.4,0-4.4-2-4.4-4.4c0-2.4,2-4.4,4.4-4.4H113c2.4,0,4.4,2,4.4,4.4
	C117.4,44.8,115.4,46.8,113,46.8z"/>
<path class="st3" d="M148.3,64.4H77.7c-2.4,0-4.4-2-4.4-4.4c0-2.4,2-4.4,4.4-4.4h70.6c2.4,0,4.4,2,4.4,4.4
	C152.7,62.5,150.7,64.4,148.3,64.4z"/>
<path class="st3" d="M148.3,82.1H77.7c-2.4,0-4.4-2-4.4-4.4c0-2.4,2-4.4,4.4-4.4h70.6c2.4,0,4.4,2,4.4,4.4
	C152.7,80.1,150.7,82.1,148.3,82.1z"/>
<path class="st4" d="M172.6,104.2H51.2L15.9,90.9c0,11.8,0,65.4,0,73.1c0,13.2,10.8,24,24,24c7.8,0,124.6,0,132.7,0
	c8.5,0,15.4-6.9,15.4-15.4v-53C188,111.1,181.1,104.2,172.6,104.2z"/>
<path class="st5" d="M51.2,104.2H29.1c-7.3,0-13.2-5.9-13.2-13.2l0,0c0-7.3,5.9-13.2,13.2-13.2h22.1V104.2z"/>
<path class="st1" d="M63,121.8H47.5c-2.4,0-4.4,2-4.4,4.4c0,20.3,0,15.3,0,22.1V166c0,2.4,2,4.4,4.4,4.4c2.4,0,4.4-2,4.4-4.4v-13.2
	h11c8.5,0,15.4-6.9,15.4-15.4S71.5,121.8,63,121.8z M63,143.9h-11v-13.2h11c3.7,0,6.6,3,6.6,6.6C69.6,140.9,66.6,143.9,63,143.9z"/>
<path class="st1" d="M117.4,121.8c-2.4,0-4.4,2-4.4,4.4v26.9l-23-29.6c-1.2-1.5-3.1-2.1-4.9-1.5c-1.8,0.6-3,2.3-3,4.2V166
	c0,2.4,2,4.4,4.4,4.4c2.4,0,4.4-2,4.4-4.4v-26.9l23,29.6c0.9,1.1,2.1,1.7,3.5,1.7c2.4,0,4.4-2,4.4-4.4v-39.7
	C121.8,123.8,119.9,121.8,117.4,121.8L117.4,121.8z"/>
<path class="st1" d="M149.9,170.4c-13.4,0-24.3-10.9-24.3-24.3c0-13.4,10.9-24.3,24.3-24.3c4.8,0,9.5,1.4,13.5,4.1
	c2.2,1.5,2.8,4.5,1.3,6.7c-1.5,2.2-4.5,2.8-6.7,1.3c-2.4-1.6-5.2-2.5-8.1-2.5c-8,0-14.6,6.5-14.6,14.6c0,8,6.5,14.6,14.6,14.6
	c6.3,0,11.7-4.1,13.7-9.7h-11.6c-2.7,0-4.9-2.2-4.9-4.9s2.2-4.9,4.9-4.9h17.3c2.7,0,4.9,2.2,4.9,4.9
	C174.2,159.5,163.3,170.4,149.9,170.4L149.9,170.4z"/>
</svg>
