<svg version="1.1" xmlns="http://www.w3.org/2000/svg" xmlns:xlink="http://www.w3.org/1999/xlink" viewBox="0 0 172 172"><g fill="none" fill-rule="nonzero" stroke="none" stroke-width="1" stroke-linecap="butt" stroke-linejoin="miter" stroke-miterlimit="10" stroke-dasharray="" stroke-dashoffset="0" font-family="none" font-weight="none" font-size="none" text-anchor="none" style="mix-blend-mode: normal"><path d="M0,172v-172h172v172z" fill="none"></path><g><path d="M113.52,149.64h-55.04c-7.59896,0 -13.76,-6.16104 -13.76,-13.76v-86c0,-7.59896 6.16104,-13.76 13.76,-13.76h55.04c7.59896,0 13.76,6.16104 13.76,13.76v86c0,7.59896 -6.16104,13.76 -13.76,13.76z" fill="#ffd7e5"></path><path d="M86,62.78c-12.82405,0 -23.22,10.39595 -23.22,23.22c0,12.82405 10.39595,23.22 23.22,23.22c12.82405,0 23.22,-10.39595 23.22,-23.22c0,-12.82405 -10.39595,-23.22 -23.22,-23.22z" fill="#e3e3e4"></path><path d="M86,110.08c-13.2784,0 -24.08,-10.8016 -24.08,-24.08c0,-13.2784 10.8016,-24.08 24.08,-24.08c13.2784,0 24.08,10.8016 24.08,24.08c0,13.2784 -10.8016,24.08 -24.08,24.08zM86,63.64c-12.32896,0 -22.36,10.03104 -22.36,22.36c0,12.32896 10.03104,22.36 22.36,22.36c12.32896,0 22.36,-10.03104 22.36,-22.36c0,-12.32896 -10.03104,-22.36 -22.36,-22.36z" fill="#1f212b"></path><path d="M113.52,151.36h-55.04c-8.53464,0 -15.48,-6.94364 -15.48,-15.48v-86c0,-8.53636 6.94536,-15.48 15.48,-15.48h55.04c8.53464,0 15.48,6.94364 15.48,15.48v86c0,8.53636 -6.94536,15.48 -15.48,15.48zM58.48,37.84c-6.6392,0 -12.04,5.40252 -12.04,12.04v86c0,6.63748 5.4008,12.04 12.04,12.04h55.04c6.6392,0 12.04,-5.40252 12.04,-12.04v-86c0,-6.63748 -5.4008,-12.04 -12.04,-12.04z" fill="#1f212b"></path><path d="M97.18,43.86c-1.548,0 -20.81544,0 -22.36,0c-1.9006,0 -3.44,1.5394 -3.44,3.44c0,1.9006 1.5394,3.44 3.44,3.44c1.54456,0 20.812,0 22.36,0c1.9006,0 3.44,-1.5394 3.44,-3.44c0,-1.9006 -1.5394,-3.44 -3.44,-3.44z" fill="#8f9eb6"></path><path d="M97.18,51.6h-22.36c-2.37016,0 -4.3,-1.92812 -4.3,-4.3c0,-2.37188 1.92984,-4.3 4.3,-4.3h22.36c2.37016,0 4.3,1.92812 4.3,4.3c0,2.37188 -1.92984,4.3 -4.3,4.3zM74.82,44.72c-1.42244,0 -2.58,1.15756 -2.58,2.58c0,1.42244 1.15756,2.58 2.58,2.58h22.36c1.42244,0 2.58,-1.15756 2.58,-2.58c0,-1.42244 -1.15756,-2.58 -2.58,-2.58zM107.5,116.96h-43c-0.47472,0 -0.86,-0.38528 -0.86,-0.86c0,-0.47472 0.38528,-0.86 0.86,-0.86h43c0.47472,0 0.86,0.38528 0.86,0.86c0,0.47472 -0.38528,0.86 -0.86,0.86zM107.5,122.12h-43c-0.47472,0 -0.86,-0.38528 -0.86,-0.86c0,-0.47472 0.38528,-0.86 0.86,-0.86h43c0.47472,0 0.86,0.38528 0.86,0.86c0,0.47472 -0.38528,0.86 -0.86,0.86zM102.34,127.28h-32.68c-0.47472,0 -0.86,-0.38528 -0.86,-0.86c0,-0.47472 0.38528,-0.86 0.86,-0.86h32.68c0.47472,0 0.86,0.38528 0.86,0.86c0,0.47472 -0.38528,0.86 -0.86,0.86z" fill="#1f212b"></path><path d="M66.22,133.3c0,-0.94944 -0.77056,-1.72 -1.72,-1.72c-0.94944,0 -1.72,0.77056 -1.72,1.72c0,0.5848 0,4.5666 0,5.16c0,0.94944 0.77056,1.72 1.72,1.72c0.94944,0 1.72,-0.77056 1.72,-1.72c0,-0.5934 0,-4.5752 0,-5.16zM74.82,133.3c0,-0.94944 -0.77056,-1.72 -1.72,-1.72c-0.94944,0 -1.72,0.77056 -1.72,1.72c0,0.5848 0,4.5666 0,5.16c0,0.94944 0.77056,1.72 1.72,1.72c0.94944,0 1.72,-0.77056 1.72,-1.72c0,-0.5934 0,-4.5752 0,-5.16zM83.42,133.3c0,-0.94944 -0.77056,-1.72 -1.72,-1.72c-0.94944,0 -1.72,0.77056 -1.72,1.72c0,0.5848 0,4.5666 0,5.16c0,0.94944 0.77056,1.72 1.72,1.72c0.94944,0 1.72,-0.77056 1.72,-1.72c0,-0.5934 0,-4.5752 0,-5.16zM92.02,133.3c0,-0.94944 -0.77056,-1.72 -1.72,-1.72c-0.94944,0 -1.72,0.77056 -1.72,1.72c0,0.5848 0,4.5666 0,5.16c0,0.94944 0.77056,1.72 1.72,1.72c0.94944,0 1.72,-0.77056 1.72,-1.72c0,-0.5934 0,-4.5752 0,-5.16zM100.62,133.3c0,-0.94944 -0.77056,-1.72 -1.72,-1.72c-0.94944,0 -1.72,0.77056 -1.72,1.72c0,0.5848 0,4.5666 0,5.16c0,0.94944 0.77056,1.72 1.72,1.72c0.94944,0 1.72,-0.77056 1.72,-1.72c0,-0.5934 0,-4.5752 0,-5.16zM109.22,133.3c0,-0.94944 -0.77056,-1.72 -1.72,-1.72c-0.94944,0 -1.72,0.77056 -1.72,1.72c0,0.5848 0,4.5666 0,5.16c0,0.94944 0.77056,1.72 1.72,1.72c0.94944,0 1.72,-0.77056 1.72,-1.72c0,-0.5934 0,-4.5752 0,-5.16z" fill="#ceccbe"></path><path d="M64.5,141.04c-1.42244,0 -2.58,-1.15756 -2.58,-2.58v-5.16c0,-1.42244 1.15756,-2.58 2.58,-2.58c1.42244,0 2.58,1.15756 2.58,2.58v5.16c0,1.42244 -1.15756,2.58 -2.58,2.58zM64.5,132.44c-0.47472,0 -0.86,0.387 -0.86,0.86v5.16c0,0.473 0.38528,0.86 0.86,0.86c0.47472,0 0.86,-0.387 0.86,-0.86v-5.16c0,-0.473 -0.38528,-0.86 -0.86,-0.86zM73.1,141.04c-1.42244,0 -2.58,-1.15756 -2.58,-2.58v-5.16c0,-1.42244 1.15756,-2.58 2.58,-2.58c1.42244,0 2.58,1.15756 2.58,2.58v5.16c0,1.42244 -1.15756,2.58 -2.58,2.58zM73.1,132.44c-0.47472,0 -0.86,0.387 -0.86,0.86v5.16c0,0.473 0.38528,0.86 0.86,0.86c0.47472,0 0.86,-0.387 0.86,-0.86v-5.16c0,-0.473 -0.38528,-0.86 -0.86,-0.86zM81.7,141.04c-1.42244,0 -2.58,-1.15756 -2.58,-2.58v-5.16c0,-1.42244 1.15756,-2.58 2.58,-2.58c1.42244,0 2.58,1.15756 2.58,2.58v5.16c0,1.42244 -1.15756,2.58 -2.58,2.58zM81.7,132.44c-0.47472,0 -0.86,0.387 -0.86,0.86v5.16c0,0.473 0.38528,0.86 0.86,0.86c0.47472,0 0.86,-0.387 0.86,-0.86v-5.16c0,-0.473 -0.38528,-0.86 -0.86,-0.86zM90.3,141.04c-1.42244,0 -2.58,-1.15756 -2.58,-2.58v-5.16c0,-1.42244 1.15756,-2.58 2.58,-2.58c1.42244,0 2.58,1.15756 2.58,2.58v5.16c0,1.42244 -1.15756,2.58 -2.58,2.58zM90.3,132.44c-0.47472,0 -0.86,0.387 -0.86,0.86v5.16c0,0.473 0.38528,0.86 0.86,0.86c0.47472,0 0.86,-0.387 0.86,-0.86v-5.16c0,-0.473 -0.38528,-0.86 -0.86,-0.86zM98.9,141.04c-1.42244,0 -2.58,-1.15756 -2.58,-2.58v-5.16c0,-1.42244 1.15756,-2.58 2.58,-2.58c1.42244,0 2.58,1.15756 2.58,2.58v5.16c0,1.42244 -1.15756,2.58 -2.58,2.58zM98.9,132.44c-0.47472,0 -0.86,0.387 -0.86,0.86v5.16c0,0.473 0.38528,0.86 0.86,0.86c0.47472,0 0.86,-0.387 0.86,-0.86v-5.16c0,-0.473 -0.38528,-0.86 -0.86,-0.86zM107.5,141.04c-1.42244,0 -2.58,-1.15756 -2.58,-2.58v-5.16c0,-1.42244 1.15756,-2.58 2.58,-2.58c1.42244,0 2.58,1.15756 2.58,2.58v5.16c0,1.42244 -1.15756,2.58 -2.58,2.58zM107.5,132.44c-0.47472,0 -0.86,0.387 -0.86,0.86v5.16c0,0.473 0.38528,0.86 0.86,0.86c0.47472,0 0.86,-0.387 0.86,-0.86v-5.16c0,-0.473 -0.38528,-0.86 -0.86,-0.86z" fill="#1f212b"></path><path d="M74.82,87.72v0.645c0,1.37772 0.53492,2.58516 1.01308,3.31616c0.94944,1.45168 3.21468,3.36776 5.86692,4.51328c0,0.31304 0,0.53664 0,0.55556c0,2.33748 -2.58,3.01 -2.58,3.01c0,0 1.72,2.58 6.88,2.58c5.16,0 6.88,-2.58 6.88,-2.58c0,0 -2.58,-0.70864 -2.58,-3.01c0,-0.01892 0,-0.24596 0,-0.56416c2.66428,-1.14552 4.92092,-3.05644 5.86692,-4.50468c0.47816,-0.731 1.01308,-1.93844 1.01308,-3.31616v-0.645c0.61404,-0.2064 1.19196,-0.85828 1.42588,-1.6082c0.21328,-0.66564 0.94944,-4.54768 0.9374,-4.85556c-0.01892,-0.50912 -0.19264,-0.8772 -0.37668,-1.12144c-0.11008,-0.14448 -0.60888,-0.81528 -0.60888,-0.81528c0,0 1.20228,-13.95952 -12.55772,-13.95952c-13.76,0 -12.41668,13.91824 -12.41668,13.91824c0,0 -0.63984,0.71208 -0.74992,0.85656c-0.18404,0.24424 -0.35776,0.61404 -0.37668,1.12144c-0.01032,0.30788 0.72412,4.1882 0.9374,4.85556c0.23392,0.74992 0.81184,1.4018 1.42588,1.6082z" fill="#ead6c7"></path><path d="M104.02388,107.64964c-0.5848,-2.63848 -2.43208,-4.81944 -4.94156,-5.81704l-5.4008,-1.80428l-1.51188,-0.75336c-0.06364,0.09116 -1.5996,2.20504 -6.16964,2.20504c-4.54596,0 -6.09052,-2.09324 -6.16792,-2.20332l-1.5136,0.75164l-5.4008,1.80428c-2.50948,0.9976 -4.35848,3.17856 -4.94156,5.81704l-0.00688,0.00688c-0.17372,0.80496 0.43688,1.56348 1.25732,1.56348h33.54516c0.82216,0 1.43104,-0.76024 1.25732,-1.56348z" fill="#f15b6c"></path><path d="M102.77172,110.08h-33.54344c-0.65188,0 -1.25904,-0.29068 -1.6684,-0.79808c-0.41108,-0.5074 -0.5676,-1.16788 -0.43,-1.80772c0.00688,-0.0344 0.01548,-0.06536 0.02752,-0.09976c0.66736,-2.88272 2.69696,-5.25116 5.4438,-6.34336l6.24704,-2.0898c0.129,-0.0344 1.99176,-0.559 1.99176,-2.19128v-0.43h1.72v0.43c0,2.37532 -2.10872,3.5518 -3.22328,3.84076l-6.14556,2.05712c-2.19988,0.87548 -3.85108,2.8208 -4.37396,5.18752c-0.00344,0.0172 -0.0086,0.03612 -0.01376,0.05332c-0.01376,0.14964 0.0516,0.258 0.0946,0.31304c0.04644,0.05848 0.15308,0.15824 0.33024,0.15824h33.54516c0.17716,0 0.2838,-0.09976 0.33024,-0.15824c0.043,-0.05332 0.11008,-0.1634 0.0946,-0.31476c-0.00516,-0.0172 -0.01032,-0.03612 -0.01376,-0.0516c-0.52288,-2.36672 -2.1758,-4.31204 -4.41868,-5.203l-6.1576,-2.0554c-0.086,-0.02408 -3.16824,-0.90128 -3.16824,-3.827v-0.43h1.72v0.43c0,1.6082 1.87136,2.1586 1.95048,2.18268l6.2436,2.08464c2.79328,1.11112 4.82288,3.47784 5.48852,6.364c0.01032,0.03096 0.02064,0.06192 0.02752,0.0946c0.1376,0.63984 -0.01892,1.30032 -0.43,1.80772c-0.40764,0.50568 -1.01652,0.79636 -1.6684,0.79636z" fill="#1f212b"></path><path d="M85.96732,98.04c-4.57176,0 -9.24156,-3.41764 -10.85492,-5.88756c-0.34572,-0.52976 -1.1524,-1.96252 -1.1524,-3.78744v-0.11696c-0.62436,-0.40764 -1.14036,-1.0922 -1.38632,-1.87824c-0.17372,-0.5418 -0.99416,-4.62508 -0.97524,-5.1428c0.02752,-0.76196 0.31304,-1.29516 0.54696,-1.6082c0.12212,-0.15996 0.79808,-0.91504 0.79808,-0.91504l1.27968,1.14896c0,0.00172 -0.59856,0.66392 -0.71036,0.8084c-0.07912,0.10664 -0.18576,0.31132 -0.1978,0.6278c0.02924,0.39904 0.71036,3.97836 0.89612,4.56144c0.17372,0.5504 0.58308,0.9546 0.88236,1.05436c0.35088,0.11868 0.58652,0.44548 0.58652,0.81528v0.645c0,1.36224 0.6106,2.44584 0.87376,2.8466c1.39492,2.1328 5.6502,5.1084 9.41356,5.1084c3.95428,0 8.11496,-3.02032 9.48064,-5.1084c0.26144,-0.40076 0.87204,-1.48436 0.87204,-2.8466v-0.645c0,-0.3698 0.23564,-0.6966 0.5848,-0.81528c0.29756,-0.10148 0.70864,-0.50396 0.88064,-1.0492c0.18748,-0.58996 0.8686,-4.16756 0.89784,-4.61648c-0.01204,-0.26832 -0.11868,-0.473 -0.20468,-0.58996c-0.10492,-0.13588 -0.61232,-0.817 -0.61232,-0.817l1.38116,-1.02856l0.60028,0.80324c0.2408,0.32336 0.52632,0.85484 0.55384,1.61508c0.01892,0.51944 -0.80152,4.60272 -0.97696,5.14968c-0.24596,0.78088 -0.76024,1.46544 -1.3846,1.87308v0.11696c0,1.82492 -0.80668,3.25768 -1.1524,3.78744c-1.61336,2.47336 -6.30724,5.891 -10.92028,5.891z" fill="#1f212b"></path><path d="M95.7094,62.8144c-1.11112,-2.09496 -4.05748,-4.3344 -9.1504,-4.3344c-10.03964,0 -16.039,7.61788 -16.039,14.98292c0,6.26596 3.65844,8.8408 3.81496,8.94744c0.14448,0.09976 0.31476,0.14964 0.48504,0.14964c0.1376,0 0.2752,-0.0344 0.40076,-0.09976c0.28208,-0.14964 0.45924,-0.44032 0.45924,-0.76024c0,-0.02752 0.01032,-2.0296 0.7224,-4.3086c0.57448,0.97008 1.29,1.51876 1.3416,1.5566c0.19436,0.1462 0.44032,0.20296 0.68284,0.1548c0.23908,-0.04644 0.4472,-0.19264 0.57276,-0.40248c0.0344,-0.05848 3.17168,-5.27352 6.9574,-7.60756c-0.10148,1.39148 -0.43172,3.3196 -1.53252,4.9708c-0.17544,0.26316 -0.19264,0.60372 -0.043,0.88408c0.14964,0.27692 0.44032,0.45236 0.75852,0.45236c1.21948,0 4.56832,-0.946 6.62372,-4.7472c0.5074,1.17648 1.26936,2.1242 2.01584,3.05644c1.3072,1.62884 2.54044,3.16652 2.54044,5.99076c0,0.32336 0.1806,0.6192 0.46956,0.7654c0.28896,0.14964 0.63468,0.12212 0.89612,-0.07052c0.1548,-0.1118 3.79432,-2.82768 3.79432,-8.93196c0,-5.66912 -2.39768,-10.02416 -5.7706,-10.64852z" fill="#b07454"></path><path d="M76.54,14.62h18.92v36.12h-18.92z" fill="#e3e3e4"></path><path d="M76.54,14.62h18.92v8.6h-18.92z" fill="#f15b6c"></path><path d="M95.46,51.6h-18.92c-0.47472,0 -0.86,-0.38528 -0.86,-0.86v-36.12c0,-0.47472 0.38528,-0.86 0.86,-0.86h18.92c0.47472,0 0.86,0.38528 0.86,0.86v36.12c0,0.47472 -0.38528,0.86 -0.86,0.86zM77.4,49.88h17.2v-34.4h-17.2z" fill="#1f212b"></path><path d="M86,43c-3.79432,0 -6.88,-3.08568 -6.88,-6.88c0,-3.79432 3.08568,-6.88 6.88,-6.88c3.79432,0 6.88,3.08568 6.88,6.88c0,3.79432 -3.08568,6.88 -6.88,6.88zM86,30.96c-2.84488,0 -5.16,2.31512 -5.16,5.16c0,2.84488 2.31512,5.16 5.16,5.16c2.84488,0 5.16,-2.31512 5.16,-5.16c0,-2.84488 -2.31512,-5.16 -5.16,-5.16zM76.54,22.36h18.92v1.72h-18.92zM86,103.2c-5.5556,0 -7.51468,-2.84144 -7.59552,-2.96356c-0.26316,-0.39388 -0.15652,-0.9288 0.23908,-1.19196c0.39388,-0.26144 0.92364,-0.15824 1.18852,0.2322c0.0774,0.11008 1.62196,2.20332 6.16792,2.20332c0.18404,0 0.34916,-0.01548 0.51256,-0.02924l0.2924,-0.02408c0.48676,-0.043 0.88236,0.32852 0.91332,0.80324c0.03096,0.473 -0.32852,0.88408 -0.80324,0.91332l-0.25628,0.02064c-0.20984,0.01892 -0.4214,0.03612 -0.65876,0.03612zM90.3,102.4346c-0.33884,0 -0.66048,-0.20124 -0.79636,-0.53492c-0.17888,-0.44032 0.03096,-0.94256 0.46956,-1.12144c1.56348,-0.63812 2.19472,-1.50156 2.2016,-1.51016c0.27348,-0.38356 0.8084,-0.47644 1.19368,-0.20812c0.387,0.27004 0.48676,0.79636 0.22016,1.18508c-0.08944,0.129 -0.92364,1.29 -2.96528,2.1242c-0.10492,0.04472 -0.215,0.06536 -0.32336,0.06536zM94.17,75.68c-0.25284,0 -0.50396,-0.11008 -0.67424,-0.32508c-0.66736,-0.83936 -1.29688,-1.6942 -1.73376,-2.70556c-0.2322,0.43 -0.48848,0.83592 -0.76712,1.21948c-0.28036,0.38528 -0.817,0.46784 -1.20056,0.1892c-0.38356,-0.27864 -0.46956,-0.817 -0.1892,-1.20056c0.70004,-0.96492 1.23324,-2.11388 1.58412,-3.41936c0.1118,-0.41624 0.52288,-0.68628 0.94256,-0.62952c0.42828,0.05504 0.7482,0.41968 0.7482,0.8514c0,1.99348 0.8514,3.225 1.96424,4.62508c0.29584,0.37152 0.23392,0.9116 -0.13932,1.20744c-0.15824,0.12728 -0.34744,0.18748 -0.53492,0.18748z" fill="#1f212b"></path><path d="M74.82,82.56c-0.17028,0 -0.34056,-0.04988 -0.48504,-0.14964c-0.15652,-0.10664 -3.81496,-2.68148 -3.81496,-8.94744c0,-7.36504 5.99936,-14.98292 16.039,-14.98292c5.09292,0 8.03928,2.23944 9.1504,4.3344c3.37292,0.62436 5.7706,4.9794 5.7706,10.64852c0,6.10428 -3.63952,8.82016 -3.79432,8.93196c-0.26144,0.19264 -0.60716,0.22016 -0.89612,0.07052c-0.28896,-0.1462 -0.46956,-0.44204 -0.46956,-0.7654c0,-1.13864 -0.19952,-2.12076 -0.62608,-3.09428c-0.19092,-0.43516 0.00516,-0.94256 0.44032,-1.13348c0.4386,-0.1892 0.94256,0.00688 1.13348,0.44204c0.26144,0.59512 0.45752,1.20572 0.5848,1.83868c0.87204,-1.17648 1.90748,-3.22328 1.90748,-6.29004c0,-4.945 -2.01412,-8.81328 -4.687,-8.99732c-0.3268,-0.02408 -0.61232,-0.23048 -0.73788,-0.53492c-0.70004,-1.72172 -3.15448,-3.73068 -7.77612,-3.73068c-8.96292,0 -14.319,6.74412 -14.319,13.26292c0,3.12008 1.0148,5.1428 1.87996,6.29864c0.19952,-1.43104 0.64844,-3.4486 1.66152,-5.34576c0.18576,-0.34916 0.5848,-0.5246 0.96836,-0.43c0.38184,0.0946 0.65016,0.44032 0.65016,0.8342c0,0.87032 0.36808,1.57552 0.7224,2.05368c1.31236,-1.96768 4.59928,-6.42248 8.40564,-8.00832c0.2666,-0.10836 0.56932,-0.08256 0.8084,0.07912c0.2408,0.15996 0.38356,0.42828 0.38356,0.71552c0,0.99416 0,3.30584 -0.94772,5.61924c0.3612,-0.01892 0.73616,0.17028 0.88408,0.5332c0.17888,0.44032 -0.03268,0.94256 -0.473,1.11972c-1.14208,0.4644 -2.38564,0.79292 -2.80188,0.01548c-0.14964,-0.28036 -0.13244,-0.6192 0.043,-0.88408c1.1008,-1.6512 1.43276,-3.57932 1.53252,-4.9708c-3.78572,2.33232 -6.923,7.54908 -6.9574,7.60756c-0.12556,0.20984 -0.33196,0.35604 -0.57276,0.40248c-0.24252,0.04816 -0.48848,-0.0086 -0.68284,-0.1548c-0.04988,-0.03784 -0.7654,-0.58652 -1.3416,-1.5566c-0.71208,2.279 -0.7224,4.28108 -0.7224,4.3086c0,0.31992 -0.17716,0.6106 -0.45924,0.76024c-0.12556,0.06536 -0.26316,0.09976 -0.40076,0.09976z" fill="#1f212b"></path></g></g></svg>