<?xml version="1.0" encoding="utf-8"?>
<!-- Generator: Adobe Illustrator 26.3.1, SVG Export Plug-In . SVG Version: 6.00 Build 0)  -->
<svg version="1.1" id="Layer_1" xmlns="http://www.w3.org/2000/svg" xmlns:xlink="http://www.w3.org/1999/xlink" x="0px" y="0px"
	 viewBox="0 0 172 172" style="enable-background:new 0 0 172 172;" xml:space="preserve">
<style type="text/css">
	.st0{fill:none;}
	.st1{fill:#FFD7E5;}
	.st2{fill:#FA759E;}
	.st3{fill:#8F9EB6;}
	.st4{fill:#1F212B;}
</style>
<g>
	<path class="st0" d="M0,0h172v172H0V0z"/>
	<g>
		<path class="st1" d="M31,118.7V53.3C31,41,41,31,53.3,31h65.4C131,31,141,41,141,53.3v65.4c0,12.3-10,22.4-22.4,22.4H53.3
			C41,141,31,131,31,118.7z"/>
		<path class="st2" d="M73.9,63.7c1,1,2.6,1,3.6,0l5.9-5.9c0,0,0,15.8,0,16.1c0,1.4,1.2,2.6,2.6,2.6s2.6-1.2,2.6-2.6
			c0-1.4,0-16.1,0-16.1l5.9,5.9c1,1,2.6,1,3.6,0c0.5-0.5,0.8-1.2,0.8-1.8s-0.3-1.3-0.8-1.8L87.8,49.8c-1-1-2.6-1-3.6,0L73.9,60.1
			C72.8,61.1,72.8,62.7,73.9,63.7z M98.1,108.3c-1-1-2.6-1-3.6,0l-5.9,5.9c0,0,0-15.8,0-16.1c0-1.4-1.2-2.6-2.6-2.6
			s-2.6,1.2-2.6,2.6c0,1.4,0,16.1,0,16.1l-5.9-5.9c-1-1-2.6-1-3.6,0c-0.5,0.5-0.8,1.2-0.8,1.8c0,0.7,0.3,1.3,0.8,1.8l10.3,10.3
			c1,1,2.6,1,3.6,0l10.3-10.3C99.2,110.9,99.2,109.3,98.1,108.3z"/>
		<path class="st3" d="M116.1,90.3v5.2H55.9v-5.2H116.1z M116.1,76.5v5.2H55.9v-5.2L116.1,76.5z"/>
		<path class="st4" d="M37.8,114.4V57.6c0-10.9,8.9-19.8,19.8-19.8h56.8c10.9,0,19.8,8.9,19.8,19.8v56.8c0,0.6,0,1.2-0.1,1.8
			c0,0.5-0.5,0.8-0.9,0.8c-0.5,0-0.8-0.4-0.8-0.9c0-0.5,0.1-1.1,0.1-1.6V57.6c0-10-8.1-18.1-18.1-18.1H57.6
			c-10,0-18.1,8.1-18.1,18.1v56.8c0,10,8.1,18.1,18.1,18.1h29.2c0.5,0,0.9,0.4,0.9,0.9s-0.4,0.9-0.9,0.9H57.6
			C46.7,134.2,37.8,125.3,37.8,114.4z M103.2,133.3c0-0.5,0.4-0.9,0.9-0.9h3.4c0.5,0,0.9,0.4,0.9,0.9s-0.4,0.9-0.9,0.9h-3.4
			C103.6,134.2,103.2,133.8,103.2,133.3z M91.2,133.3c0-0.5,0.4-0.9,0.9-0.9h6.9c0.5,0,0.9,0.4,0.9,0.9s-0.4,0.9-0.9,0.9H92
			C91.5,134.2,91.2,133.8,91.2,133.3z"/>
		<path class="st4" d="M29.2,118.7V53.3C29.2,40,40,29.2,53.3,29.2h65.4c13.3,0,24.1,10.8,24.1,24.1v65.4
			c0,13.3-10.8,24.1-24.1,24.1H53.3C40,142.8,29.2,132,29.2,118.7z M139.3,53.3c0-11.4-9.3-20.6-20.6-20.6H53.3
			c-11.4,0-20.6,9.3-20.6,20.6v65.4c0,11.4,9.3,20.6,20.6,20.6h65.4c11.4,0,20.6-9.3,20.6-20.6L139.3,53.3z"/>
		<path class="st4" d="M55,95.5v-5.2c0-0.5,0.4-0.9,0.9-0.9h60.2c0.5,0,0.9,0.4,0.9,0.9v5.2c0,0.5-0.4,0.9-0.9,0.9H55.9
			C55.4,96.3,55,95.9,55,95.5z M56.8,91.2v3.4h58.5v-3.4H56.8z M55,81.7v-5.2c0-0.5,0.4-0.9,0.9-0.9h60.2c0.5,0,0.9,0.4,0.9,0.9v5.2
			c0,0.5-0.4,0.9-0.9,0.9H55.9C55.4,82.6,55,82.2,55,81.7z M56.8,77.4v3.4h58.5v-3.4H56.8z"/>
		<path class="st4" d="M72.2,61.9c0-0.9,0.3-1.8,1-2.4l10.3-10.3c0.7-0.7,1.5-1,2.4-1s1.8,0.4,2.4,1l10.3,10.3
			c1.3,1.3,1.3,3.6,0,4.9c-0.7,0.7-1.5,1-2.4,1s-1.8-0.4-2.4-1l-4.4-4.4V74c0,1.9-1.5,3.4-3.4,3.4s-3.4-1.5-3.4-3.4V59.9l-4.4,4.4
			c-0.7,0.7-1.5,1-2.4,1s-1.8-0.4-2.4-1C72.6,63.7,72.2,62.8,72.2,61.9L72.2,61.9z M98,61.9c0-0.5-0.2-0.9-0.5-1.2L87.2,50.4
			c-0.7-0.7-1.8-0.7-2.4,0L74.5,60.7c-0.6,0.7-0.6,1.8,0,2.4c0.3,0.3,0.8,0.5,1.2,0.5s0.9-0.2,1.2-0.5l5.9-5.9
			c0.2-0.2,0.6-0.3,0.9-0.2c0.3,0.1,0.5,0.4,0.5,0.8V74c0,0.9,0.8,1.7,1.7,1.7s1.7-0.8,1.7-1.7V57.8c0-0.3,0.2-0.7,0.5-0.8
			c0.3-0.1,0.7-0.1,0.9,0.2l5.9,5.9c0.3,0.3,0.8,0.5,1.2,0.5s0.9-0.2,1.2-0.5S98,62.4,98,61.9z M72.2,110.1c0-0.9,0.4-1.8,1-2.4
			s1.5-1,2.4-1s1.8,0.4,2.4,1l4.4,4.4V98c0-1.9,1.5-3.4,3.4-3.4s3.4,1.5,3.4,3.4v14.1l4.4-4.4c0.7-0.7,1.5-1,2.4-1s1.8,0.4,2.4,1
			c1.3,1.3,1.3,3.5,0,4.9l-10.3,10.3c-0.7,0.7-1.5,1-2.4,1s-1.8-0.4-2.4-1l-10.3-10.3C72.6,111.9,72.2,111,72.2,110.1L72.2,110.1z
			 M87.7,98c0-0.9-0.8-1.7-1.7-1.7s-1.7,0.8-1.7,1.7v16.1c0,0.3-0.2,0.7-0.5,0.8c-0.3,0.1-0.7,0.1-0.9-0.2l-5.9-5.9
			c-0.3-0.3-0.8-0.5-1.2-0.5s-0.9,0.2-1.2,0.5c-0.6,0.7-0.6,1.8,0,2.4l10.3,10.3c0.7,0.7,1.8,0.7,2.4,0l10.3-10.3
			c0.6-0.7,0.6-1.8,0-2.4c-0.3-0.3-0.8-0.5-1.2-0.5s-0.9,0.2-1.2,0.5l-5.9,5.9c-0.2,0.2-0.6,0.3-0.9,0.2c-0.3-0.1-0.5-0.4-0.5-0.8
			V98z"/>
	</g>
</g>
</svg>
