<?xml version="1.0" encoding="utf-8"?>
<!-- Generator: Adobe Illustrator 26.3.1, SVG Export Plug-In . SVG Version: 6.00 Build 0)  -->
<svg version="1.1" id="Layer_1" xmlns="http://www.w3.org/2000/svg" xmlns:xlink="http://www.w3.org/1999/xlink" x="0px" y="0px"
	 viewBox="0 0 226 226" style="enable-background:new 0 0 226 226;" xml:space="preserve">
<style type="text/css">
	.st0{fill:none;}
	.st1{fill:#FFD7E5;}
	.st2{fill:#FA759E;}
	.st3{fill:#0089EF;}
	.st4{fill:#3A2C60;}
</style>
<g>
	<path class="st0" d="M13.4,219.8V14.4h205.4v205.4H13.4z"/>
	<g id="Layer_1_00000140723796032012692550000015558398563652565183_">
		<path class="st1" d="M164.4,25.6H33.6c-3.4,0-6.2,2.8-6.2,6.2v164.1c0,3.4,2.8,6.2,6.2,6.2h130.8c3.4,0,6.2-2.8,6.2-6.2V31.8
			C170.6,28.4,167.8,25.6,164.4,25.6L164.4,25.6z"/>
		<path class="st2" d="M33.6,25.6h4.8c-3.4,0-6.2,2.8-6.2,6.2v164.1c0,3.4,2.8,6.2,6.2,6.2h-4.8c-3.4,0-6.2-2.8-6.2-6.2V31.8
			C27.4,28.4,30.2,25.6,33.6,25.6z"/>
		<path class="st3" d="M151.9,101.4H46.4c-2.2,0-4-1.8-4-4s1.8-4,4-4h105.5c2.2,0,4,1.8,4,4S154.1,101.4,151.9,101.4z"/>
		<path class="st3" d="M119.8,117.4H46.4c-2.2,0-4-1.8-4-4s1.8-4,4-4h73.4c2.2,0,4,1.8,4,4S122,117.4,119.8,117.4z"/>
		<g>
			<path class="st2" d="M179.4,114.6h18.9v-13h-18.9v-8.3l-14.8,14.8l14.8,14.8V114.6z"/>
			<path class="st4" d="M133.6,200.5h-8.9c-0.9,0-1.6,0.7-1.6,1.6c0,0.9,0.7,1.6,1.6,1.6h8.9c0.9,0,1.6-0.7,1.6-1.6
				C135.2,201.2,134.4,200.5,133.6,200.5L133.6,200.5z"/>
			<path class="st4" d="M109.1,136.7h42.7c2.2,0,4-1.8,4-4s-1.8-4-4-4h-42.7c-2.2,0-4,1.8-4,4C105.1,134.9,106.9,136.7,109.1,136.7z
				"/>
			<path class="st4" d="M93.2,132.7c0-2.2-1.8-4-4-4H46.4c-2.2,0-4,1.8-4,4c0,2.2,1.8,4,4,4h42.7C91.4,136.7,93.2,134.9,93.2,132.7z
				"/>
			<path class="st4" d="M89.1,145.9H46.4c-0.9,0-1.6,0.7-1.6,1.6s0.7,1.6,1.6,1.6h42.7c0.9,0,1.6-0.7,1.6-1.6S90,145.9,89.1,145.9
				L89.1,145.9z"/>
			<path class="st4" d="M89.1,157.5H46.4c-0.9,0-1.6,0.7-1.6,1.6c0,0.9,0.7,1.6,1.6,1.6h42.7c0.9,0,1.6-0.7,1.6-1.6
				C90.7,158.3,90,157.5,89.1,157.5L89.1,157.5z"/>
			<path class="st4" d="M89.1,169.2H46.4c-0.9,0-1.6,0.7-1.6,1.6s0.7,1.6,1.6,1.6h42.7c0.9,0,1.6-0.7,1.6-1.6S90,169.2,89.1,169.2
				L89.1,169.2z"/>
			<path class="st4" d="M89.1,180.8H46.4c-0.9,0-1.6,0.7-1.6,1.6c0,0.9,0.7,1.6,1.6,1.6h42.7c0.9,0,1.6-0.7,1.6-1.6
				C90.7,181.5,90,180.8,89.1,180.8L89.1,180.8z"/>
			<path class="st4" d="M46.4,58.9h105.5c3.5,0,6.4-2.9,6.4-6.4s-2.9-6.4-6.4-6.4H46.4c-3.5,0-6.4,2.9-6.4,6.4S42.9,58.9,46.4,58.9z
				"/>
			<path class="st4" d="M158.3,76.5c0-3.5-2.9-6.4-6.4-6.4H46.4c-3.5,0-6.4,2.9-6.4,6.4c0,3.5,2.9,6.4,6.4,6.4h105.5
				C155.4,82.9,158.3,80.1,158.3,76.5z"/>
			<path class="st4" d="M151.9,145.9h-42.7c-0.9,0-1.6,0.7-1.6,1.6s0.7,1.6,1.6,1.6h42.7c0.9,0,1.6-0.7,1.6-1.6
				S152.8,145.9,151.9,145.9L151.9,145.9z"/>
			<path class="st4" d="M151.9,157.5h-42.7c-0.9,0-1.6,0.7-1.6,1.6c0,0.9,0.7,1.6,1.6,1.6h42.7c0.9,0,1.6-0.7,1.6-1.6
				C153.5,158.3,152.8,157.5,151.9,157.5L151.9,157.5z"/>
			<path class="st4" d="M151.9,169.2h-42.7c-0.9,0-1.6,0.7-1.6,1.6s0.7,1.6,1.6,1.6h42.7c0.9,0,1.6-0.7,1.6-1.6
				S152.8,169.2,151.9,169.2L151.9,169.2z"/>
			<path class="st4" d="M109.1,184h42.7c0.9,0,1.6-0.7,1.6-1.6c0-0.9-0.7-1.6-1.6-1.6h-42.7c-0.9,0-1.6,0.7-1.6,1.6
				C107.5,183.3,108.3,184,109.1,184L109.1,184z"/>
			<path class="st4" d="M198.4,100h-17.3v-6.7c0-0.6-0.4-1.2-1-1.5c-0.6-0.3-1.3-0.1-1.7,0.3l-6.1,6.1V31.8c0-4.3-3.5-7.8-7.8-7.8
				H33.6c-4.3,0-7.8,3.5-7.8,7.8v164.1c0,4.3,3.5,7.8,7.8,7.8h84.8c0.9,0,1.6-0.7,1.6-1.6c0-0.9-0.7-1.6-1.6-1.6H33.6
				c-2.5,0-4.6-2.1-4.6-4.6V31.8c0-2.5,2.1-4.6,4.6-4.6h130.8c2.5,0,4.6,2.1,4.6,4.6v69.7l-5.5,5.5c-0.6,0.6-0.6,1.6,0,2.3l5.5,5.5
				v81.2c0,2.5-2.1,4.6-4.6,4.6h-24.6c-0.9,0-1.6,0.7-1.6,1.6c0,0.9,0.7,1.6,1.6,1.6h24.6c4.3,0,7.8-3.5,7.8-7.8v-78l6.1,6.1
				c0.3,0.3,0.7,0.5,1.1,0.5c0.2,0,0.4,0,0.6-0.1c0.6-0.2,1-0.8,1-1.5v-6.7h17.3c0.9,0,1.6-0.7,1.6-1.6v-13
				C200,100.7,199.3,100,198.4,100L198.4,100z M196.8,113h-17.3c-0.9,0-1.6,0.7-1.6,1.6v4.4l-10.9-10.9l10.9-10.9v4.4
				c0,0.9,0.7,1.6,1.6,1.6h17.3V113z"/>
		</g>
	</g>
</g>
</svg>
