<svg version="1.1" xmlns="http://www.w3.org/2000/svg" xmlns:xlink="http://www.w3.org/1999/xlink" viewBox="0 0 226 226"><g fill="none" fill-rule="nonzero" stroke="none" stroke-width="1" stroke-linecap="butt" stroke-linejoin="miter" stroke-miterlimit="10" stroke-dasharray="" stroke-dashoffset="0" font-family="none" font-weight="none" font-size="none" text-anchor="none" style="mix-blend-mode: normal"><path d="M0,226v-226h226v226z" fill="none"></path><g><path d="M170.38281,7.0625h-8.82812h-92.69531c-9.73566,0 -17.65625,7.92059 -17.65625,17.65625v52.96875l-4.41406,13.24219l4.41406,13.24219c0,6.92037 0,93.33623 0,97.10938c0,9.73566 7.92059,17.65625 17.65625,17.65625h123.59375c9.73566,0 17.65625,-7.92059 17.65625,-17.65625v-145.66406v-8.82812l-30.89844,-8.82812z" fill="#fff5f5"></path><path d="M170.38281,46.78906h39.72656l-39.72656,-39.72656z" fill="#ece6f2"></path><path d="M113,46.78906h-35.3125c-2.43789,0 -4.41406,-1.97618 -4.41406,-4.41406c0,-2.43789 1.97618,-4.41406 4.41406,-4.41406h35.3125c2.43789,0 4.41406,1.97618 4.41406,4.41406c0,2.43789 -1.97618,4.41406 -4.41406,4.41406z" fill="#d3cbe4"></path><path d="M148.3125,64.44531h-70.625c-2.43789,0 -4.41406,-1.97618 -4.41406,-4.41406c0,-2.43789 1.97618,-4.41406 4.41406,-4.41406h70.625c2.43745,0 4.41406,1.97618 4.41406,4.41406c0,2.43789 -1.97662,4.41406 -4.41406,4.41406z" fill="#d3cbe4"></path><path d="M148.3125,82.10156h-70.625c-2.43789,0 -4.41406,-1.97618 -4.41406,-4.41406c0,-2.43789 1.97618,-4.41406 4.41406,-4.41406h70.625c2.43745,0 4.41406,1.97618 4.41406,4.41406c0,2.43789 -1.97662,4.41406 -4.41406,4.41406z" fill="#d3cbe4"></path><path d="M172.58984,104.17188h-121.38672l-35.3125,-13.24219c0,11.75906 0,65.41552 0,73.12645c0,13.22409 10.75884,23.98293 23.98337,23.98293c7.75462,0 124.59354,0 132.71629,0c8.5187,0 15.44922,-6.93052 15.44922,-15.44922v-52.96875c-0.00044,-8.5187 -6.93096,-15.44922 -15.44966,-15.44922z" fill="#53e261"></path><path d="M51.20313,104.17188h-22.07031c-7.31366,0 -13.24219,-5.92853 -13.24219,-13.24219v0c0,-7.31366 5.92853,-13.24219 13.24219,-13.24219h22.07031z" fill="#20ca78"></path><g fill="#fbf3f3"><path d="M143.89844,170.38281c-12.16957,0 -22.07031,-9.90074 -22.07031,-22.07031c0,-12.16957 9.90074,-22.07031 22.07031,-22.07031c4.38846,0 8.62949,1.28626 12.26447,3.71929c2.02605,1.356 2.56854,4.09757 1.21298,6.12363c-1.356,2.02605 -4.09846,2.56854 -6.12363,1.21298c-2.17702,-1.45752 -4.71996,-2.22778 -7.35383,-2.22778c-7.30174,0 -13.24219,5.94045 -13.24219,13.24219c0,7.30174 5.94045,13.24219 13.24219,13.24219c5.75461,0 10.66393,-3.68971 12.48562,-8.82812h-10.52401c-2.43745,0 -4.41406,-1.97662 -4.41406,-4.41406c0,-2.43745 1.97662,-4.41406 4.41406,-4.41406h15.69464c2.43745,0 4.41406,1.97662 4.41406,4.41406c0,12.16957 -9.90074,22.07031 -22.07031,22.07031z"></path><path d="M99.75781,170.38281c-1.84022,0 -3.48667,-1.14148 -4.13289,-2.86384l-13.24219,-35.3125c-0.85589,-2.28295 0.3006,-4.82678 2.58311,-5.68311c2.28207,-0.85545 4.82722,0.3006 5.68266,2.58311l9.1093,24.29103l9.1093,-24.29103c0.85589,-2.28207 3.40015,-3.43811 5.68311,-2.58311c2.28251,0.85633 3.43944,3.40015 2.58311,5.68311l-13.24219,35.3125c-0.64666,1.72237 -2.29355,2.86384 -4.13333,2.86384z"></path><path d="M60.03125,170.38281h-13.24219c-2.43789,0 -4.41406,-1.97662 -4.41406,-4.41406c0,-2.43745 1.97618,-4.41406 4.41406,-4.41406h13.24219c2.43391,0 4.41406,-1.98015 4.41406,-4.41406c0,-2.43391 -1.98015,-4.41406 -4.41406,-4.41406h-4.41406c-7.30174,0 -13.24219,-5.94045 -13.24219,-13.24219c0,-7.30174 5.94045,-13.24219 13.24219,-13.24219h13.24219c2.43789,0 4.41406,1.97662 4.41406,4.41406c0,2.43745 -1.97618,4.41406 -4.41406,4.41406h-13.24219c-2.43391,0 -4.41406,1.98015 -4.41406,4.41406c0,2.43391 1.98015,4.41406 4.41406,4.41406h4.41406c7.30174,0 13.24219,5.94045 13.24219,13.24219c0,7.30174 -5.94045,13.24219 -13.24219,13.24219z"></path></g></g></g></svg>