<?xml version="1.0" encoding="utf-8"?>
<!-- Generator: Adobe Illustrator 26.3.1, SVG Export Plug-In . SVG Version: 6.00 Build 0)  -->
<svg version="1.1" id="Layer_1" xmlns="http://www.w3.org/2000/svg" xmlns:xlink="http://www.w3.org/1999/xlink" x="0px" y="0px"
	 viewBox="0 0 172 172" style="enable-background:new 0 0 172 172;" xml:space="preserve">
<style type="text/css">
	.st0{fill:none;}
	.st1{fill:#FA759E;}
	.st2{fill:#FFD7E5;}
</style>
<g>
	<path d="M95.2,120.5L68.8,45.2c0,0-0.4-1.1-0.9-2.5c-1.2-2.7-19.2-3-20.3,0c-0.7,2.1-0.9,2.5-0.9,2.5l-26.4,75.3l-1.8,5H40l0.9-2.6
		l5.5-16.3h22l5.4,16.3l0.9,2.6H97L95.2,120.5z M52,87.9l5.4-16.4l5.4,16.4H52z"/>
	<path class="st0" d="M10.7,161.3V10.7h150.6v150.6H10.7z"/>
	<path class="st1" d="M65.2,46.5c-0.9-2.6-14.1-2.6-14.9,0c-0.9,2.6-26.4,75.3-26.4,75.3h13.5l6.4-18.8h27.4l6.3,18.8h14.3
		C91.6,121.8,66.1,49.1,65.2,46.5z M46.8,91.6L57,60.8h0.9L68,91.6H46.8z"/>
	<circle cx="142.5" cy="84.1" r="1.9"/>
	<circle cx="142.5" cy="91.6" r="1.9"/>
	<circle cx="142.5" cy="99.2" r="1.9"/>
	<path d="M125.3,59.7L125.3,59.7c-15.6,0-26.5,7.8-27.7,19.8c0,0,0,1.9,0.8,2.7c2.9,3.8,14,2.4,16.3,1.4c2.3-0.9,2.5-2.6,2.5-2.6
		c0.9-3,5.6-3.3,7.6-3.3c6.9,0,6.9,3.4,6.9,4.9v1.6l-11.1,0.7c-16,1-25.1,8.5-25.1,20.8c0,12.3,9.3,20.8,22.6,20.8
		c5.3,0,10.1-1.4,14-4.1v3.1h20V82.6C151.9,68.3,142,59.7,125.3,59.7z M131.6,101c0,4.5-4.2,7.9-9.9,7.9c-1.4,0-6.1-0.3-6.1-3.9
		c0-1.1,0-3.5,7.1-3.9l8.8-0.6V101z"/>
	<path class="st2" d="M125.3,63.5L125.3,63.5c-20.4,0-24.5,13.4-23.5,15.9c1,2.5,9.9,2.2,11.7,0.5c1.8-1.7,2.6-6.1,11.2-5.9
		c7,0,10.7,3.1,10.7,8.7v5.1l-14.7,0.9c-13.8,0.8-21.6,6.8-21.6,17c0,10.4,7.8,17,18.8,17c12.5,0,17.7-8.7,17.7-8.7v7.8h12.4V82.6
		C148.1,70.6,139.9,63.5,125.3,63.5z M135.4,101c0,6.6-5.8,11.6-13.6,11.6c-5.7,0-9.8-2.9-9.8-7.6c0-4.6,3.4-7.2,10.6-7.7l12.8-0.8
		V101z"/>
</g>
</svg>
