<?xml version="1.0" encoding="utf-8"?>
<!-- Generator: Adobe Illustrator 26.3.1, SVG Export Plug-In . SVG Version: 6.00 Build 0)  -->
<svg version="1.1" id="Layer_1" xmlns="http://www.w3.org/2000/svg" xmlns:xlink="http://www.w3.org/1999/xlink" x="0px" y="0px"
	 viewBox="0 0 226 226" style="enable-background:new 0 0 226 226;" xml:space="preserve">
<style type="text/css">
	.st0{fill:none;}
	.st1{fill:#FFD7E5;}
	.st2{fill:#FA759E;}
	.st3{fill:#3A2C60;}
	.st4{fill:#0089EF;}
</style>
<g>
	<path class="st0" d="M10.7,215.3V10.7h204.5v204.5H10.7z"/>
	<g id="Layer_1_00000093874280544520592030000011910364882618432669_">
		<path class="st1" d="M164.1,25.9H33.9c-3.4,0-6.2,2.8-6.2,6.2v163.4c0,3.4,2.8,6.2,6.2,6.2h130.3c3.4,0,6.2-2.8,6.2-6.2V32.1
			C170.3,28.7,167.5,25.9,164.1,25.9L164.1,25.9z"/>
		<path class="st2" d="M33.9,25.9h4.8c-3.4,0-6.2,2.8-6.2,6.2v163.4c0,3.4,2.8,6.2,6.2,6.2h-4.8c-3.4,0-6.2-2.8-6.2-6.2V32.1
			C27.7,28.7,30.5,25.9,33.9,25.9z"/>
		<path class="st3" d="M67.9,203.3H59c-0.9,0-1.6-0.7-1.6-1.6c0-0.9,0.7-1.6,1.6-1.6h8.8c0.9,0,1.6,0.7,1.6,1.6
			C69.5,202.6,68.8,203.3,67.9,203.3L67.9,203.3z"/>
		<path class="st3" d="M52.8,200.1H33.9c-2.5,0-4.6-2.1-4.6-4.6V32.1c0-2.5,2.1-4.6,4.6-4.6h130.3c2.5,0,4.6,2.1,4.6,4.6v28.5
			l3.2-3.2V32.1c0-4.3-3.5-7.8-7.8-7.8H33.9c-4.3,0-7.8,3.5-7.8,7.8v163.4c0,4.3,3.5,7.8,7.8,7.8h18.9c0.9,0,1.6-0.7,1.6-1.6
			C54.4,200.8,53.7,200.1,52.8,200.1z"/>
		<path class="st3" d="M168.7,69.2v126.3c0,2.5-2.1,4.6-4.6,4.6h-90c-0.9,0-1.6,0.7-1.6,1.6c0,0.9,0.7,1.6,1.6,1.6h90
			c4.3,0,7.8-3.5,7.8-7.8V72.4L168.7,69.2z"/>
		<path class="st3" d="M151.6,136.5h-42.6c-2.2,0-4-1.8-4-4s1.8-4,4-4h42.6c2.2,0,4,1.8,4,4C155.6,134.7,153.8,136.5,151.6,136.5z"
			/>
		<path class="st3" d="M89.2,136.5H46.6c-2.2,0-4-1.8-4-4s1.8-4,4-4h42.6c2.2,0,4,1.8,4,4C93.2,134.7,91.4,136.5,89.2,136.5z"/>
		<path class="st3" d="M89.2,148.9H46.6c-0.9,0-1.6-0.7-1.6-1.6c0-0.9,0.7-1.6,1.6-1.6h42.6c0.9,0,1.6,0.7,1.6,1.6
			C90.8,148.2,90,148.9,89.2,148.9L89.2,148.9z"/>
		<path class="st3" d="M89.2,160.5H46.6c-0.9,0-1.6-0.7-1.6-1.6c0-0.9,0.7-1.6,1.6-1.6h42.6c0.9,0,1.6,0.7,1.6,1.6
			C90.8,159.8,90,160.5,89.2,160.5L89.2,160.5z"/>
		<path class="st3" d="M89.2,172.1H46.6c-0.9,0-1.6-0.7-1.6-1.6c0-0.9,0.7-1.6,1.6-1.6h42.6c0.9,0,1.6,0.7,1.6,1.6
			C90.8,171.3,90,172.1,89.2,172.1L89.2,172.1z"/>
		<path class="st3" d="M89.2,183.6H46.6c-0.9,0-1.6-0.7-1.6-1.6c0-0.9,0.7-1.6,1.6-1.6h42.6c0.9,0,1.6,0.7,1.6,1.6
			C90.8,182.9,90,183.6,89.2,183.6L89.2,183.6z"/>
		<path class="st3" d="M151.6,101.4h-105c-2.2,0-4-1.8-4-4s1.8-4,4-4h105c2.2,0,4,1.8,4,4S153.8,101.4,151.6,101.4z"/>
		<path class="st4" d="M151.6,59h-105c-3.5,0-6.4-2.9-6.4-6.4s2.9-6.4,6.4-6.4h105c3.5,0,6.4,2.9,6.4,6.4S155.2,59,151.6,59z"/>
		<path class="st4" d="M151.6,83h-105c-3.5,0-6.4-2.9-6.4-6.4c0-3.5,2.9-6.4,6.4-6.4h105c3.5,0,6.4,2.9,6.4,6.4
			C158,80.1,155.2,83,151.6,83z"/>
		<path class="st3" d="M119.7,117.3H46.6c-2.2,0-4-1.8-4-4c0-2.2,1.8-4,4-4h73.1c2.2,0,4,1.8,4,4
			C123.7,115.5,121.9,117.3,119.7,117.3z"/>
		<path class="st3" d="M151.6,148.9h-42.6c-0.9,0-1.6-0.7-1.6-1.6c0-0.9,0.7-1.6,1.6-1.6h42.6c0.9,0,1.6,0.7,1.6,1.6
			C153.2,148.2,152.5,148.9,151.6,148.9L151.6,148.9z"/>
		<path class="st3" d="M151.6,160.5h-42.6c-0.9,0-1.6-0.7-1.6-1.6c0-0.9,0.7-1.6,1.6-1.6h42.6c0.9,0,1.6,0.7,1.6,1.6
			C153.2,159.8,152.5,160.5,151.6,160.5L151.6,160.5z"/>
		<path class="st3" d="M151.6,172.1h-42.6c-0.9,0-1.6-0.7-1.6-1.6c0-0.9,0.7-1.6,1.6-1.6h42.6c0.9,0,1.6,0.7,1.6,1.6
			C153.2,171.3,152.5,172.1,151.6,172.1L151.6,172.1z"/>
		<path class="st3" d="M151.6,183.6h-42.6c-0.9,0-1.6-0.7-1.6-1.6c0-0.9,0.7-1.6,1.6-1.6h42.6c0.9,0,1.6,0.7,1.6,1.6
			C153.2,182.9,152.5,183.6,151.6,183.6L151.6,183.6z"/>
		<g>
			<path class="st2" d="M179.1,71.4h18.8V58.5h-18.8v-8.3l-14.7,14.7l14.7,14.7V71.4z"/>
			<path class="st3" d="M179.1,81.2c-0.4,0-0.8-0.2-1.1-0.5L163.2,66c-0.6-0.6-0.6-1.6,0-2.3L178,49.1c0.5-0.5,1.1-0.6,1.7-0.3
				c0.6,0.2,1,0.8,1,1.5v6.7h17.2c0.9,0,1.6,0.7,1.6,1.6v12.9c0,0.9-0.7,1.6-1.6,1.6h-17.2v6.7c0,0.6-0.4,1.2-1,1.5
				C179.5,81.2,179.3,81.2,179.1,81.2L179.1,81.2z M166.6,64.9l10.9,10.9v-4.4c0-0.9,0.7-1.6,1.6-1.6h17.2v-9.7h-17.2
				c-0.9,0-1.6-0.7-1.6-1.6v-4.4L166.6,64.9z"/>
		</g>
	</g>
</g>
</svg>
