<?xml version="1.0" encoding="utf-8"?>
<!-- Generator: Adobe Illustrator 26.3.1, SVG Export Plug-In . SVG Version: 6.00 Build 0)  -->
<svg version="1.1" id="Layer_1" xmlns="http://www.w3.org/2000/svg" xmlns:xlink="http://www.w3.org/1999/xlink" x="0px" y="0px"
	 viewBox="0 0 226 226" style="enable-background:new 0 0 226 226;" xml:space="preserve">
<style type="text/css">
	.st0{fill:none;}
	.st1{fill:#FFF5F5;}
	.st2{fill:#ECE6F2;}
	.st3{fill:#D3CBE4;}
	.st4{fill:#B35324;}
	.st5{fill:#883F2E;}
	.st6{fill:#FBF3F3;}
</style>
<path class="st0" d="M0,226V0h226v226H0z"/>
<path class="st1" d="M170.4,7.1h-8.8H68.9c-9.7,0-17.7,7.9-17.7,17.7v53l-4.4,13.2l4.4,13.2c0,6.9,0,93.3,0,97.1
	c0,9.7,7.9,17.7,17.7,17.7h123.6c9.7,0,17.7-7.9,17.7-17.7V55.6v-8.8L179.2,38L170.4,7.1z"/>
<path class="st2" d="M170.4,46.8h39.7L170.4,7.1V46.8z"/>
<path class="st3" d="M113,46.8H77.7c-2.4,0-4.4-2-4.4-4.4c0-2.4,2-4.4,4.4-4.4H113c2.4,0,4.4,2,4.4,4.4
	C117.4,44.8,115.4,46.8,113,46.8z"/>
<path class="st3" d="M148.3,64.4H77.7c-2.4,0-4.4-2-4.4-4.4c0-2.4,2-4.4,4.4-4.4h70.6c2.4,0,4.4,2,4.4,4.4
	C152.7,62.5,150.7,64.4,148.3,64.4z"/>
<path class="st3" d="M148.3,82.1H77.7c-2.4,0-4.4-2-4.4-4.4c0-2.4,2-4.4,4.4-4.4h70.6c2.4,0,4.4,2,4.4,4.4
	C152.7,80.1,150.7,82.1,148.3,82.1z"/>
<path class="st4" d="M172.6,104.2H51.2L15.9,90.9c0,11.8,0,65.4,0,73.1c0,13.2,10.8,24,24,24c7.8,0,124.6,0,132.7,0
	c8.5,0,15.4-6.9,15.4-15.4v-53C188,111.1,181.1,104.2,172.6,104.2z"/>
<path class="st5" d="M51.2,104.2H29.1c-7.3,0-13.2-5.9-13.2-13.2l0,0c0-7.3,5.9-13.2,13.2-13.2h22.1V104.2z"/>
<path class="st6" d="M115,121.8H88.5c-2.4,0-4.4,2-4.4,4.4c0,2.4,2,4.4,4.4,4.4h8.8V166c0,2.4,2,4.4,4.4,4.4c2.4,0,4.4-2,4.4-4.4
	v-35.3h8.8c2.4,0,4.4-2,4.4-4.4C119.4,123.8,117.4,121.8,115,121.8L115,121.8z"/>
<path class="st6" d="M152.7,121.8h-22.1c-2.4,0-4.4,2-4.4,4.4V166c0,2.4,2,4.4,4.4,4.4c2.4,0,4.4-2,4.4-4.4v-17.7h13.2
	c2.4,0,4.4-2,4.4-4.4c0-2.4-2-4.4-4.4-4.4h-13.2v-8.8h17.7c2.4,0,4.4-2,4.4-4.4C157.1,123.8,155.2,121.8,152.7,121.8z"/>
<path class="st6" d="M73.2,122.1H46.8c-2.4,0-4.4,2-4.4,4.4c0,2.4,2,4.4,4.4,4.4h8.8v35.3c0,2.4,2,4.4,4.4,4.4c2.4,0,4.4-2,4.4-4.4
	v-35.3h8.8c2.4,0,4.4-2,4.4-4.4C77.7,124.1,75.7,122.1,73.2,122.1L73.2,122.1z"/>
</svg>
